<?xml version="1.0" encoding="UTF-8" standalone="no"?>
<!DOCTYPE svg PUBLIC "-//W3C//DTD SVG 1.1//EN" "http://www.w3.org/Graphics/SVG/1.1/DTD/svg11.dtd">
<svg width="100%" height="100%" viewBox="0 0 2084 1768" version="1.1" xmlns="http://www.w3.org/2000/svg" xmlns:xlink="http://www.w3.org/1999/xlink" xml:space="preserve" xmlns:serif="http://www.serif.com/" style="fill-rule:evenodd;clip-rule:evenodd;stroke-linejoin:round;stroke-miterlimit:2;">
    <g id="Background-Complete" serif:id="Background Complete">
    </g>
    <g id="Speech-Bubble" serif:id="Speech Bubble">
    </g>
    <g id="Sign">
    </g>
    <g id="Plant">
    </g>
    <g id="Boxes">
    </g>
    <g id="Prancheta1" transform="matrix(1,0,0,0.848121,0,0)">
        <rect x="0" y="0" width="2084" height="2084" style="fill:none;"/>
        <g id="Character" transform="matrix(1,0,0,1.17908,0,-163.813)">
            <g transform="matrix(4.06542,0,0,4.06542,25.6448,115.453)">
                <g transform="matrix(1,0,0,1,0,265.047)">
                    <rect x="0" y="117.352" width="500" height="0.249" style="fill:rgb(236,236,236);"/>
                </g>
                <g transform="matrix(1,0,0,1,0,281.826)">
                    <rect x="78.545" y="108.962" width="33.122" height="0.25" style="fill:rgb(236,236,236);"/>
                </g>
                <g transform="matrix(1,0,0,1,0,296.251)">
                    <rect x="133.333" y="101.75" width="30.167" height="0.249" style="fill:rgb(236,236,236);"/>
                </g>
                <g transform="matrix(1,0,0,1,0,300.396)">
                    <rect x="56.854" y="99.677" width="38.252" height="0.25" style="fill:rgb(236,236,236);"/>
                </g>
                <g transform="matrix(1,0,0,1,0,299.305)">
                    <rect x="434" y="100.223" width="15.901" height="0.249" style="fill:rgb(236,236,236);"/>
                </g>
                <g transform="matrix(1,0,0,1,0,299.305)">
                    <rect x="391.471" y="100.223" width="39.321" height="0.249" style="fill:rgb(236,236,236);"/>
                </g>
                <g transform="matrix(1,0,0,1,0,281.577)">
                    <rect x="250" y="109.087" width="30.333" height="0.249" style="fill:rgb(236,236,236);"/>
                </g>
                <g transform="matrix(1,0,0,1,0,281.577)">
                    <rect x="284.666" y="109.087" width="72.095" height="0.249" style="fill:rgb(236,236,236);"/>
                </g>
                <g transform="matrix(1,0,0,1,43.915,337.55)">
                    <path d="M0,-282.348C-3.01,-282.348 -5.458,-279.899 -5.458,-276.89L-5.458,-5.458C-5.458,-2.449 -3.01,0 0,0L193.099,0C196.107,0 198.556,-2.449 198.556,-5.458L198.556,-276.89C198.556,-279.899 196.107,-282.348 193.099,-282.348L0,-282.348ZM193.099,0.25L0,0.25C-3.147,0.25 -5.708,-2.311 -5.708,-5.458L-5.708,-276.89C-5.708,-280.036 -3.147,-282.598 0,-282.598L193.099,-282.598C196.245,-282.598 198.806,-280.036 198.806,-276.89L198.806,-5.458C198.806,-2.311 196.245,0.25 193.099,0.25" style="fill:rgb(236,236,236);fill-rule:nonzero;"/>
                </g>
                <g transform="matrix(1,0,0,1,260.212,337.55)">
                    <path d="M0,-282.348C-3.009,-282.348 -5.457,-279.899 -5.457,-276.89L-5.457,-5.458C-5.457,-2.449 -3.009,0 0,0L193.099,0C196.108,0 198.557,-2.449 198.557,-5.458L198.557,-276.89C198.557,-279.899 196.108,-282.348 193.099,-282.348L0,-282.348ZM193.099,0.25L0,0.25C-3.146,0.25 -5.707,-2.311 -5.707,-5.458L-5.707,-276.89C-5.707,-280.036 -3.146,-282.598 0,-282.598L193.099,-282.598C196.246,-282.598 198.807,-280.036 198.807,-276.89L198.807,-5.458C198.807,-2.311 196.246,0.25 193.099,0.25" style="fill:rgb(236,236,236);fill-rule:nonzero;"/>
                </g>
                <g transform="matrix(-0.707107,-0.707107,-0.707107,0.707107,251.187,288.198)">
                    <rect x="-89.092" y="-162.767" width="21.671" height="199.67" style="fill:rgb(236,236,236);"/>
                </g>
                <g transform="matrix(-0.707107,-0.707107,-0.707107,0.707107,326.551,301.439)">
                    <path d="M-26.439,-23.597L-4.767,-23.597L-4.767,5.944L-30.547,11.85L-26.439,-23.597Z" style="fill:rgb(225,225,225);fill-rule:nonzero;"/>
                </g>
                <g transform="matrix(0.707107,0.707107,0.707107,-0.707107,461.073,305.638)">
                    <rect x="-71.652" y="-172.984" width="7.225" height="199.671" style="fill:rgb(225,225,225);"/>
                </g>
                <g transform="matrix(-0.707107,0.707107,0.707107,0.707107,450.856,314.978)">
                    <rect x="52.096" y="-178.092" width="21.671" height="199.671" style="fill:rgb(236,236,236);"/>
                </g>
                <g transform="matrix(0.707107,-0.707107,-0.707107,-0.707107,261.402,297.538)">
                    <rect x="69.536" y="-167.875" width="7.225" height="199.671" style="fill:rgb(225,225,225);"/>
                </g>
                <g transform="matrix(-0.707107,-0.707107,-0.707107,0.707107,37.5911,309.086)">
                    <rect x="-69.337" y="-126.676" width="16.866" height="155.397" style="fill:rgb(236,236,236);"/>
                </g>
                <g transform="matrix(-0.707107,-0.707107,-0.707107,0.707107,96.2446,319.391)">
                    <path d="M-20.576,-18.366L-3.71,-18.366L-3.71,4.625L-23.773,9.223L-20.576,-18.366Z" style="fill:rgb(225,225,225);fill-rule:nonzero;"/>
                </g>
                <g transform="matrix(0.707018,0.707196,0.707196,-0.707018,200.939,322.669)">
                    <rect x="-55.774" y="-134.626" width="5.642" height="155.395" style="fill:rgb(225,225,225);"/>
                </g>
                <g transform="matrix(-0.707107,0.707107,0.707107,0.707107,192.988,329.928)">
                    <rect x="40.545" y="-138.602" width="16.866" height="155.397" style="fill:rgb(236,236,236);"/>
                </g>
                <g transform="matrix(0.707018,-0.707196,-0.707196,-0.707018,45.5427,316.365)">
                    <rect x="54.127" y="-130.651" width="5.603" height="155.397" style="fill:rgb(225,225,225);"/>
                </g>
                <g transform="matrix(-1,0,0,1,620.13,157.513)">
                    <rect x="301.262" y="117.602" width="17.606" height="107.283" style="fill:rgb(245,245,245);"/>
                </g>
                <g transform="matrix(-1,0,0,1,301.262,332.56)">
                    <path d="M-17.606,-12.866L0,-12.866L0,0L-17.606,-3.803L-17.606,-12.866Z" style="fill:rgb(236,236,236);fill-rule:nonzero;"/>
                </g>
                <g transform="matrix(1,0,0,1,0,157.513)">
                    <rect x="318.868" y="117.602" width="5.869" height="107.283" style="fill:rgb(236,236,236);"/>
                </g>
                <g transform="matrix(-1,0,0,1,251.178,157.513)">
                    <rect x="116.786" y="117.602" width="17.606" height="107.283" style="fill:rgb(245,245,245);"/>
                </g>
                <g transform="matrix(-1,0,0,1,116.786,332.56)">
                    <path d="M-17.606,-12.866L0,-12.866L0,0L-17.606,-3.803L-17.606,-12.866Z" style="fill:rgb(236,236,236);fill-rule:nonzero;"/>
                </g>
                <g transform="matrix(1,0,0,1,0,157.513)">
                    <rect x="134.392" y="117.602" width="5.869" height="107.283" style="fill:rgb(236,236,236);"/>
                </g>
                <g transform="matrix(-1,0,0,1,431.474,114.691)">
                    <rect x="103.361" y="176.144" width="224.752" height="33.021" style="fill:rgb(245,245,245);"/>
                </g>
                <g transform="matrix(1,0,0,1,0,114.691)">
                    <rect x="328.113" y="176.144" width="3.298" height="33.021" style="fill:rgb(236,236,236);"/>
                </g>
                <g transform="matrix(1,0,0,1,242.731,363.253)">
                    <path d="M0,-106.08L-43.94,-106.08L-75.01,-75.01L-75.01,-31.07L-43.94,0L0,0L31.07,-31.07L31.07,-75.01L0,-106.08Z" style="fill:rgb(250,250,250);fill-rule:nonzero;"/>
                </g>
                <g transform="matrix(1,0,0,1,240.722,358.403)">
                    <path d="M0,-96.38L-39.922,-96.38L-68.151,-68.151L-68.151,-28.23L-39.922,0L0,0L28.229,-28.23L28.229,-68.151L0,-96.38Z" style="fill:rgb(225,225,225);fill-rule:nonzero;"/>
                </g>
                <g transform="matrix(1,0,0,1,182.189,305.607)">
                    <path d="M0,9.212L5.622,8.71C5.743,10.01 5.991,11 6.365,11.681C6.973,12.782 7.843,13.334 8.973,13.334C9.816,13.334 10.466,13.053 10.923,12.488C11.379,11.926 11.608,11.273 11.608,10.53C11.608,9.824 11.39,9.192 10.956,8.637C10.521,8.078 9.512,7.554 7.93,7.057C5.339,6.229 3.491,5.127 2.387,3.752C1.274,2.378 0.717,0.627 0.717,-1.503C0.717,-2.901 1.002,-4.223 1.572,-5.468C2.141,-6.711 2.998,-7.688 4.141,-8.4C5.285,-9.112 6.852,-9.469 8.843,-9.469C11.286,-9.469 13.149,-8.821 14.432,-7.528C15.714,-6.234 16.477,-4.176 16.72,-1.354L11.152,-0.89C11.003,-2.115 10.693,-3.007 10.219,-3.564C9.745,-4.121 9.09,-4.399 8.256,-4.399C7.569,-4.399 7.052,-4.191 6.704,-3.776C6.356,-3.361 6.182,-2.858 6.182,-2.263C6.182,-1.831 6.326,-1.441 6.613,-1.094C6.891,-0.735 7.552,-0.4 8.595,-0.091C11.177,0.701 13.027,1.503 14.145,2.314C15.261,3.124 16.075,4.131 16.583,5.331C17.092,6.532 17.346,7.874 17.346,9.359C17.346,11.106 17.008,12.715 16.33,14.188C15.651,15.661 14.703,16.777 13.486,17.54C12.268,18.301 10.734,18.681 8.882,18.681C5.63,18.681 3.378,17.79 2.126,16.008C0.874,14.225 0.165,11.959 0,9.212" style="fill:white;fill-rule:nonzero;"/>
                </g>
                <g transform="matrix(1,0,0,1,201.165,323.825)">
                    <path d="M0,-27.221L17.959,-27.221L17.959,-20.499L11.934,-20.499L11.934,0L6.026,0L6.026,-20.499L0,-20.499L0,-27.221Z" style="fill:white;fill-rule:nonzero;"/>
                </g>
                <g transform="matrix(1,0,0,1,226.05,310.159)">
                    <path d="M0,0.11C0,2.859 0.358,4.834 1.076,6.034C1.793,7.235 2.769,7.836 4.004,7.836C5.273,7.836 6.256,7.248 6.951,6.072C7.647,4.896 7.995,2.786 7.995,-0.26C7.995,-2.823 7.632,-4.696 6.906,-5.877C6.18,-7.06 5.195,-7.651 3.952,-7.651C2.76,-7.651 1.804,-7.05 1.082,-5.849C0.361,-4.649 0,-2.661 0,0.11M-5.908,0.074C-5.908,-4.37 -5.039,-7.829 -3.3,-10.307C-1.561,-12.782 0.86,-14.02 3.964,-14.02C7.147,-14.02 9.599,-12.804 11.321,-10.37C13.042,-7.938 13.903,-4.531 13.903,-0.149C13.903,3.032 13.526,5.641 12.774,7.678C12.022,9.714 10.936,11.299 9.514,12.43C8.092,13.564 6.321,14.13 4.199,14.13C2.043,14.13 0.258,13.641 -1.155,12.664C-2.567,11.686 -3.713,10.137 -4.591,8.02C-5.469,5.905 -5.908,3.256 -5.908,0.074" style="fill:white;fill-rule:nonzero;"/>
                </g>
                <g transform="matrix(1,0,0,1,249.044,312.219)">
                    <path d="M0,-4.01L1.448,-4.01C2.586,-4.01 3.386,-4.292 3.848,-4.856C4.308,-5.418 4.539,-6.14 4.539,-7.019C4.539,-7.872 4.339,-8.597 3.939,-9.191C3.539,-9.784 2.787,-10.082 1.683,-10.082L0,-10.082L0,-4.01ZM-5.935,-15.615L3.887,-15.615C6.026,-15.615 7.627,-14.891 8.693,-13.444C9.758,-11.994 10.291,-9.934 10.291,-7.261C10.291,-4.512 9.71,-2.364 8.549,-0.817C7.388,0.731 5.616,1.505 3.235,1.505L0,1.505L0,11.605L-5.935,11.605L-5.935,-15.615Z" style="fill:white;fill-rule:nonzero;"/>
                </g>
                <g transform="matrix(1,0,0,1,411.347,111.103)">
                    <path d="M0,-8.356C-1.03,-8.356 -2.067,-8.227 -3.096,-7.982C-3.1,-7.981 -3.104,-7.98 -3.109,-7.978C-4.425,-10.929 -7.356,-12.85 -11.312,-12.85C-14.209,-12.85 -17.169,-11.824 -19.748,-10.115C-21.426,-15.749 -26.456,-19.519 -33.481,-19.519C-43.468,-19.519 -53.928,-11.886 -57.71,-2.127C-58.588,-2.33 -59.524,-2.44 -60.523,-2.44C-60.836,-2.44 -61.15,-2.429 -61.464,-2.409C-70.08,-1.838 -69.433,11.163 -60.798,11.163L0.602,11.163C2.757,11.163 4.805,10.156 6.073,8.414C7.135,6.955 7.96,5.345 8.459,3.654C10.417,-2.98 6.627,-8.356 0,-8.356" style="fill:rgb(240,240,240);fill-rule:nonzero;"/>
                </g>
                <g transform="matrix(1,0,0,1,171.359,52.8459)">
                    <path d="M0,-7.717C-1.342,-16.596 -8.42,-22.787 -18.771,-22.787C-27.252,-22.787 -35.99,-18.633 -42.494,-12.242C-42.496,-12.24 -42.498,-12.238 -42.5,-12.237C-44.181,-13.771 -46.521,-14.684 -49.348,-14.684C-56.526,-14.684 -64.062,-8.865 -66.18,-1.688C-66.513,-0.558 -66.676,0.531 -66.713,1.577C-66.719,1.58 -66.724,1.583 -66.729,1.586C-66.778,1.619 -66.826,1.652 -66.875,1.685C-72.82,5.728 -69.833,15.07 -62.643,15.07L0.588,15.07C3.035,15.07 5.363,13.882 6.692,11.827C7.682,10.299 8.46,8.654 8.966,6.941C11.224,-0.71 7.247,-7 0,-7.717" style="fill:rgb(240,240,240);fill-rule:nonzero;"/>
                </g>
                <g transform="matrix(1,0,0,1,246.885,154.907)">
                    <path d="M0,-10.611C-1.844,-22.818 -11.576,-31.331 -25.809,-31.331C-37.47,-31.331 -49.483,-25.62 -58.427,-16.833C-58.429,-16.831 -58.432,-16.828 -58.434,-16.825C-60.745,-18.934 -63.962,-20.189 -67.85,-20.189C-77.719,-20.189 -88.08,-12.189 -90.992,-2.32C-91.451,-0.767 -91.674,0.731 -91.726,2.167C-91.732,2.172 -91.74,2.176 -91.747,2.181C-91.814,2.226 -91.881,2.272 -91.948,2.317C-100.13,7.882 -96.072,20.72 -86.177,20.72L-2.856,20.72C4.058,20.72 10.297,16.288 12.29,9.667C12.302,9.626 12.315,9.585 12.327,9.543C15.432,-0.976 9.964,-9.626 0,-10.611" style="fill:rgb(245,245,245);fill-rule:nonzero;"/>
                </g>
                <g transform="matrix(1,0,0,1,128.743,86.5039)">
                    <path d="M0,21.04L0,-10.173L-26.524,21.04L0,21.04ZM0,42.419L-50.198,42.419L-50.198,19.755L0,-39.915L24.017,-39.915L24.017,21.04L36.465,21.04L36.465,42.419L24.017,42.419L24.017,60.955L0,60.955L0,42.419Z" style="fill:rgb(26,46,53);fill-rule:nonzero;"/>
                </g>
                <g transform="matrix(1,0,0,1,364.91,147.459)">
                    <path d="M0,-100.87L0,0L-27.873,0L-27.873,-66.097C-32.384,-62.669 -36.747,-59.894 -40.964,-57.775C-45.182,-55.655 -50.469,-53.625 -56.829,-51.686L-56.829,-74.282C-47.448,-77.304 -40.164,-80.935 -34.977,-85.176C-29.791,-89.414 -25.731,-94.646 -22.799,-100.87L0,-100.87Z" style="fill:rgb(26,46,53);fill-rule:nonzero;"/>
                </g>
                <g transform="matrix(1,0,0,1,311.817,190.191)">
                    <path d="M0,-16.998C-0.44,-16.213 -0.777,-15.644 -1.168,-14.99C-1.548,-14.358 -1.946,-13.749 -2.339,-13.135C-3.127,-11.911 -3.963,-10.727 -4.812,-9.549C-6.525,-7.205 -8.346,-4.927 -10.325,-2.746C-12.299,-0.561 -14.407,1.549 -16.734,3.51C-19.047,5.483 -21.563,7.326 -24.403,8.887C-24.987,9.224 -26.125,9.828 -27.098,10.181C-28.099,10.558 -29.097,10.835 -30.075,11.015C-32.033,11.372 -33.872,11.394 -35.602,11.278C-39.06,11.034 -42.092,10.139 -44.94,9.116C-47.773,8.04 -50.413,6.762 -52.923,5.319C-55.448,3.856 -57.775,2.333 -60.126,0.458C-61.634,-0.744 -61.882,-2.942 -60.679,-4.451C-59.709,-5.667 -58.092,-6.063 -56.712,-5.54L-56.526,-5.469C-51.787,-3.669 -46.731,-1.947 -42,-1.063C-39.642,-0.59 -37.314,-0.4 -35.344,-0.507C-34.366,-0.572 -33.479,-0.73 -32.792,-0.977C-32.447,-1.101 -32.146,-1.226 -31.896,-1.368C-31.612,-1.528 -31.562,-1.585 -30.999,-1.971C-27.386,-4.495 -23.969,-8.016 -20.823,-11.83C-19.257,-13.752 -17.727,-15.744 -16.272,-17.802C-15.538,-18.823 -14.834,-19.871 -14.127,-20.909L-13.097,-22.474L-12.156,-23.943L-11.998,-24.189C-9.913,-27.443 -5.585,-28.392 -2.331,-26.307C0.798,-24.302 1.784,-20.202 0,-16.998" style="fill:rgb(255,140,123);fill-rule:nonzero;"/>
                </g>
                <g transform="matrix(-0.833919,-0.551887,-0.551887,0.833919,245.927,185.113)">
                    <path d="M-9.209,-5.677L-0.011,-5.677L-2.931,4.619C-2.931,4.619 -8.639,4.272 -10.873,-1.24L-9.209,-5.677Z" style="fill:rgb(255,140,123);fill-rule:nonzero;"/>
                </g>
                <g transform="matrix(1,0,0,1,242.027,187.625)">
                    <path d="M0,-5.712L-0.599,-2.467C-0.816,-1.289 -0.342,-0.091 0.623,0.62L3.796,2.958L7.043,-7.24L3.959,-8.147C2.179,-8.67 0.337,-7.537 0,-5.712" style="fill:rgb(255,140,123);fill-rule:nonzero;"/>
                </g>
                <g transform="matrix(-0.976485,-0.215586,-0.215586,0.976485,298.307,185.643)">
                    <path d="M-7.241,-30.997C0.118,-28.105 5.857,-17.447 8.651,-8.078C1.592,-0.322 -7.241,1.13 -7.241,1.13C-7.241,1.13 -14.394,-9.424 -16.662,-16.551C-18.93,-23.68 -14.163,-33.717 -7.241,-30.997" style="fill:rgb(0,124,255);fill-rule:nonzero;"/>
                </g>
                <g opacity="0.2">
                    <g transform="matrix(-0.976485,-0.215586,-0.215586,0.976485,298.307,185.643)">
                        <path d="M-7.241,-30.997C0.118,-28.105 5.857,-17.447 8.651,-8.078C1.592,-0.322 -7.241,1.13 -7.241,1.13C-7.241,1.13 -14.394,-9.424 -16.662,-16.551C-18.93,-23.68 -14.163,-33.717 -7.241,-30.997" style="fill-rule:nonzero;"/>
                    </g>
                </g>
                <g transform="matrix(-0.7527,0.658364,0.658364,0.7527,308.995,183.004)">
                    <path d="M6.892,-18.084C6.892,-18.084 9.137,-17.756 9.985,-17.083C10.494,-13.542 12.297,-4.453 6.892,2.502C5.203,2.799 4.133,2.083 4.133,2.083C4.133,2.083 8.382,-8.15 6.892,-18.084" style="fill:rgb(26,46,53);fill-rule:nonzero;"/>
                </g>
                <g transform="matrix(1,0,0,1,343.53,228.001)">
                    <path d="M0,-71.335C-9.197,-72.829 -19.781,-73.276 -28.566,-72.15C-35.666,-71.24 -40.974,-64.715 -40.916,-57.557C-40.865,-51.295 -40.44,-43.563 -38.945,-35.314C-41.553,-21.557 -42.491,-2.876 -39.741,1.245C-39.74,1.249 9.454,1.941 9.454,1.941C11.558,-3.946 8.913,-29.386 11.719,-55.957C12.504,-63.39 7.377,-70.136 0,-71.335" style="fill:rgb(0,124,255);fill-rule:nonzero;"/>
                </g>
                <g opacity="0.2">
                    <g transform="matrix(0.99986,0.0167378,0.0167378,-0.99986,324.462,229.32)">
                        <path d="M0.498,0.019C-2.679,22.1 -0.523,59.154 -0.5,59.525L0.498,59.466C0.475,59.094 -1.675,22.141 1.488,0.161L0.498,0.019Z" style="fill-rule:nonzero;"/>
                    </g>
                </g>
                <g transform="matrix(0.0118191,-0.99993,-0.99993,-0.0118191,314.037,151.17)">
                    <path d="M-5.306,-5.674C-4.654,-7.36 -3.721,-6.717 -3.721,-6.717C-3.721,-6.717 -3.812,0.965 -5.306,6.256C-6.178,7.058 -7.265,6.171 -7.265,6.171C-7.265,6.171 -7.242,-0.668 -5.306,-5.674" style="fill:rgb(26,46,53);fill-rule:nonzero;"/>
                </g>
                <g opacity="0.2">
                    <g transform="matrix(-0.966988,-0.254822,-0.254822,0.966988,310.878,170.158)">
                        <path d="M-7.656,-17.693C-7.656,-17.693 -6.087,-11.218 -11.545,-7.147C-8.302,-6.268 -7.656,-0.198 -7.656,-0.198C-7.656,-0.198 1.014,-7.344 -5.246,-16.535C-5.514,-17.352 -7.656,-17.693 -7.656,-17.693" style="fill-rule:nonzero;"/>
                    </g>
                </g>
                <g transform="matrix(1,0,0,1,319.405,168.171)">
                    <path d="M0,-10.33C-0.824,-6.754 6.385,0 6.385,0C6.385,0 19.135,-6.159 19.941,-9.693L0,-10.33Z" style="fill:white;fill-rule:nonzero;"/>
                </g>
                <g opacity="0.2">
                    <g transform="matrix(1,0,0,1,348.179,197.601)">
                        <path d="M0,-18.811C-1.36,-16.191 0.45,-4.782 5.7,0C5.76,-4.702 5.9,-9.691 6.2,-14.821L0,-18.811Z" style="fill-rule:nonzero;"/>
                    </g>
                </g>
                <g transform="matrix(1,0,0,1,336.694,162.612)">
                    <path d="M0,-25.365L-13.164,-16.727C-11.605,-12.901 -10.878,-8.92 -15.376,-7.083C-17.981,-6.019 -18.028,-2.311 -15.406,-1.291C-14.35,-0.88 -12.998,-0.575 -11.282,-0.417C-6.756,0 -2.016,-0.847 1.101,-2.386C2.852,-3.252 3.348,-5.447 2.235,-7.052C-1.18,-11.976 -0.763,-20.454 0,-25.365" style="fill:rgb(255,140,123);fill-rule:nonzero;"/>
                </g>
                <g opacity="0.2">
                    <g transform="matrix(-0.836319,0.548244,0.548244,0.836319,326.933,150.43)">
                        <path d="M-8.97,-5.668L0.347,-5.668C0.568,-4.515 0.858,-3.394 1.272,-2.403C-1.424,-0.847 -6.167,-0.684 -7.644,-2.784C-8.381,-3.831 -8.904,-4.975 -8.97,-5.668" style="fill-rule:nonzero;"/>
                    </g>
                </g>
                <g transform="matrix(1,0,0,1,322.076,134.577)">
                    <path d="M0,-13.805C3.356,-13.872 4.266,-9.063 3.038,-7.439C5.577,-6.886 6.803,-3.915 6.072,-2.408C5.342,-0.9 2.369,0.746 -0.256,0.087C-4.741,-1.041 -5.52,-4.768 -4.292,-6.466C-6.731,-8.481 -5.509,-14.551 0,-13.805" style="fill:rgb(26,46,53);fill-rule:nonzero;"/>
                </g>
                <g opacity="0.2">
                    <g transform="matrix(1,0,0,1,322.076,134.577)">
                        <path d="M0,-13.805C3.356,-13.872 4.266,-9.063 3.038,-7.439C5.577,-6.886 6.803,-3.915 6.072,-2.408C5.342,-0.9 2.369,0.746 -0.256,0.087C-4.741,-1.041 -5.52,-4.768 -4.292,-6.466C-6.731,-8.481 -5.509,-14.551 0,-13.805" style="fill:white;fill-rule:nonzero;"/>
                    </g>
                </g>
                <g transform="matrix(-0.387598,-0.921828,-0.921828,0.387598,321.483,123.307)">
                    <path d="M-12.517,-15.868C-19.404,-11.881 -23.641,-9.898 -25.461,-4.496C-28.2,3.628 -20.476,10.748 -12.517,8.894C-5.353,7.225 4.705,0.987 3.991,-7.362C3.288,-15.588 -5.631,-19.855 -12.517,-15.868" style="fill:rgb(255,140,123);fill-rule:nonzero;"/>
                </g>
                <g transform="matrix(1,0,0,1,340.054,121.047)">
                    <path d="M0,13.687C-3.357,13.638 -4.097,8.799 -2.814,7.219C-5.332,6.578 -6.453,3.566 -5.67,2.084C-4.887,0.603 -1.859,-0.938 0.741,-0.186C5.185,1.097 5.833,4.849 4.546,6.503C6.913,8.602 5.48,14.625 0,13.687" style="fill:rgb(26,46,53);fill-rule:nonzero;"/>
                </g>
                <g opacity="0.2">
                    <g transform="matrix(1,0,0,1,340.054,121.047)">
                        <path d="M0,13.687C-3.357,13.638 -4.097,8.799 -2.814,7.219C-5.332,6.578 -6.453,3.566 -5.67,2.084C-4.887,0.603 -1.859,-0.938 0.741,-0.186C5.185,1.097 5.833,4.849 4.546,6.503C6.913,8.602 5.48,14.625 0,13.687" style="fill:white;fill-rule:nonzero;"/>
                    </g>
                </g>
                <g opacity="0.2">
                    <g transform="matrix(1,0,0,1,331.999,129.967)">
                        <path d="M0,-0.007C0,-0.007 1.415,-0.404 2.415,0.304C1.071,0.397 0,-0.007 0,-0.007" style="fill-rule:nonzero;"/>
                    </g>
                </g>
                <g opacity="0.2">
                    <g transform="matrix(1,0,0,1,331.964,131.273)">
                        <path d="M0,-0.733C0,-0.733 1.338,-0.819 2.049,0.086C0.846,-0.109 0,-0.733 0,-0.733" style="fill-rule:nonzero;"/>
                    </g>
                </g>
                <g opacity="0.2">
                    <g transform="matrix(1,0,0,1,319.467,129.398)">
                        <path d="M0,-0.007C0,-0.007 -0.644,-0.404 -1.099,0.304C-0.487,0.397 0,-0.007 0,-0.007" style="fill-rule:nonzero;"/>
                    </g>
                </g>
                <g opacity="0.2">
                    <g transform="matrix(1,0,0,1,319.484,130.703)">
                        <path d="M0,-0.732C0,-0.732 -0.609,-0.819 -0.932,0.087C-0.385,-0.108 0,-0.732 0,-0.732" style="fill-rule:nonzero;"/>
                    </g>
                </g>
                <g transform="matrix(0.0761179,-0.997099,-0.997099,-0.0761179,341.214,132.992)">
                    <path d="M-3.571,-2.448C-5.49,-1.542 -6.807,0.028 -7.362,1.502C-8.196,3.721 -5.995,4.801 -3.571,4.16C-1.39,3.583 1.674,1.734 1.457,-0.481C1.242,-2.663 -1.376,-3.483 -3.571,-2.448" style="fill:rgb(255,140,123);fill-rule:nonzero;"/>
                </g>
                <g transform="matrix(0.0743522,-0.997232,-0.997232,-0.0743522,329.754,129.201)">
                    <path d="M-0.765,-0.71C-1.413,-0.716 -1.936,-0.377 -1.936,0.046C-1.936,0.47 -1.412,0.819 -0.765,0.824C-0.118,0.83 0.406,0.492 0.407,0.068C0.406,-0.356 -0.118,-0.704 -0.765,-0.71" style="fill:rgb(26,46,53);fill-rule:nonzero;"/>
                </g>
                <g transform="matrix(0.984341,-0.176277,-0.176277,-0.984341,327.372,141.706)">
                    <path d="M-0.175,-0.016C-1.015,-0.023 -1.696,0.416 -1.696,0.966C-1.696,1.516 -1.016,1.969 -0.175,1.976C0.664,1.983 1.345,1.544 1.345,0.994C1.345,0.445 0.664,-0.007 -0.175,-0.016" style="fill:rgb(26,46,53);fill-rule:nonzero;"/>
                </g>
                <g transform="matrix(0.0736556,-0.997284,-0.997284,-0.0736556,320.994,128.492)">
                    <path d="M-0.765,-0.711C-1.412,-0.716 -1.937,-0.377 -1.936,0.046C-1.936,0.469 -1.411,0.818 -0.765,0.824C-0.117,0.828 0.407,0.49 0.407,0.066C0.406,-0.357 -0.118,-0.705 -0.765,-0.711" style="fill:rgb(26,46,53);fill-rule:nonzero;"/>
                </g>
                <g transform="matrix(1,0,0,1,323.642,140.078)">
                    <path d="M0,-4.33C-4.685,-4.011 -5.578,-1.726 -4.762,-0.726C-3.946,0.274 -1.939,-0.709 -1.939,-0.709C-1.939,-0.709 1.844,0.099 2.959,-1.104C4.748,-0.344 7.474,-1.767 6.708,-2.847C5.942,-3.927 4.003,-4.604 0,-4.33" style="fill:rgb(26,46,53);fill-rule:nonzero;"/>
                </g>
                <g opacity="0.2">
                    <g transform="matrix(1,0,0,1,323.642,140.078)">
                        <path d="M0,-4.33C-4.685,-4.011 -5.578,-1.726 -4.762,-0.726C-3.946,0.274 -1.939,-0.709 -1.939,-0.709C-1.939,-0.709 1.844,0.099 2.959,-1.104C4.748,-0.344 7.474,-1.767 6.708,-2.847C5.942,-3.927 4.003,-4.604 0,-4.33" style="fill:white;fill-rule:nonzero;"/>
                    </g>
                </g>
                <g transform="matrix(1,0,0,1,323.78,136.411)">
                    <path d="M0,-6.443C0,-6.443 -1.713,-2.828 -3.448,-1.151C-2.374,0 -0.399,-0.342 -0.399,-0.342L0,-6.443Z" style="fill:rgb(255,85,81);fill-rule:nonzero;"/>
                </g>
                <g transform="matrix(1,0,0,1,331.812,124.264)">
                    <path d="M0,2.374C0.063,2.37 0.126,2.351 0.183,2.314C0.358,2.2 0.406,1.965 0.291,1.788C-0.866,0.021 -2.621,-0.006 -2.696,-0.007C-2.906,-0.008 -3.075,0.162 -3.074,0.372C-3.073,0.581 -2.903,0.752 -2.694,0.754C-2.636,0.755 -1.267,0.791 -0.344,2.201C-0.266,2.32 -0.132,2.382 0,2.374" style="fill:rgb(26,46,53);fill-rule:nonzero;"/>
                </g>
                <g transform="matrix(1,0,0,1,318.779,123.56)">
                    <path d="M0,2.331C0.123,2.332 0.244,2.274 0.318,2.165C1.251,0.778 2.62,0.776 2.678,0.776C2.887,0.778 3.058,0.611 3.06,0.402C3.061,0.193 2.894,0.02 2.685,0.017C2.609,0.017 0.854,-0.001 -0.315,1.736C-0.431,1.91 -0.385,2.146 -0.21,2.265C-0.145,2.309 -0.072,2.33 0,2.331" style="fill:rgb(26,46,53);fill-rule:nonzero;"/>
                </g>
                <g transform="matrix(1,0,0,1,331.689,322.196)">
                    <path d="M0,-11.396C2.237,-47.473 1.743,-84.498 -2.149,-92.556L-27.899,-92.95C-27.899,-92.95 -24.709,-32.625 -23.696,-8.592C-22.646,16.395 -20.412,81.371 -20.412,81.371L-5.513,81.554C-5.513,81.554 3.242,16.514 0,-11.396" style="fill:rgb(26,46,53);fill-rule:nonzero;"/>
                </g>
                <g opacity="0.2">
                    <g transform="matrix(1,0,0,1,332.799,306.469)">
                        <path d="M0,-50.82C-8.79,-41.219 -4.68,-14.639 -0.85,0C0.17,-18.309 0.48,-36.539 0,-50.82" style="fill-rule:nonzero;"/>
                    </g>
                </g>
                <g transform="matrix(1,0,0,1,325.972,416.144)">
                    <path d="M0,-10.481L-13.106,-10.65C-13.907,-10.664 -14.767,-10.481 -15.425,-9.961C-19.218,-6.968 -22.113,-6.872 -26.424,-6.099C-31.592,-5.173 -29.035,0.024 -25.226,0.083C-18.925,0.183 -19.448,-0.048 -14.076,0.036C-12.863,0.055 -10.35,0.083 -10.35,0.083L-8.667,-1.627L-7.183,0.083L-0.306,0.083C0.455,0.083 1.058,-0.544 0.978,-1.301L0,-10.481Z" style="fill:rgb(26,46,53);fill-rule:nonzero;"/>
                </g>
                <g transform="matrix(0.347425,-0.937708,-0.937708,-0.347425,324.605,396.846)">
                    <path d="M-8.639,-5.789C-8.681,-5.557 -14.103,10.517 -14.103,10.517L-8.639,13.28L-2.497,-4.498L-8.639,-5.789Z" style="fill:rgb(0,124,255);fill-rule:nonzero;"/>
                </g>
                <g transform="matrix(1,0,0,1,361.927,322.492)">
                    <path d="M0,-11.692C-2.759,-47.769 -3.935,-84.492 -8.943,-92.549L-40,-92.95C-40,-92.95 -27.648,-32.921 -23.308,-8.888C-18.798,16.099 -6.656,81.075 -6.656,81.075L8.268,81.258C8.268,81.258 7.107,16.218 0,-11.692" style="fill:rgb(26,46,53);fill-rule:nonzero;"/>
                </g>
                <g transform="matrix(1,0,0,1,370.93,416.144)">
                    <path d="M0,-10.481L-13.106,-10.65C-13.907,-10.664 -14.767,-10.481 -15.425,-9.961C-19.218,-6.968 -17.484,-6.872 -21.794,-6.099C-26.963,-5.173 -24.406,0.024 -20.596,0.083C-14.296,0.183 -14.819,-0.048 -9.447,0.036C-8.234,0.055 -3.613,0.083 -3.613,0.083L-2.835,-1.627L-1.808,0.083L-0.271,0.083C0.475,0.083 1.056,-0.563 0.977,-1.305L0,-10.481Z" style="fill:rgb(26,46,53);fill-rule:nonzero;"/>
                </g>
                <g transform="matrix(0.331201,-0.94356,-0.94356,-0.331201,368.729,395.838)">
                    <path d="M-9.437,-6.689C-9.477,-6.451 -14.646,9.785 -14.646,9.785L-9.437,13.314L-3.581,-4.627L-9.437,-6.689Z" style="fill:rgb(0,124,255);fill-rule:nonzero;"/>
                </g>
                <g transform="matrix(-0.951713,-0.306988,-0.306988,0.951713,312.231,167.946)">
                    <path d="M-6.358,-16.395C-6.358,-16.395 -4.86,-9.013 -10.53,-5.242C-7.34,-4.19 -6.358,-0.069 -6.358,-0.069C-6.358,-0.069 0.654,-7.24 -3.795,-14.959C-4.018,-15.79 -6.358,-16.395 -6.358,-16.395" style="fill:rgb(0,124,255);fill-rule:nonzero;"/>
                </g>
                <g transform="matrix(1,0,0,1,354.332,228.365)">
                    <path d="M0,4.32C-17.573,5.047 -37.725,5.269 -50.327,4.319C-50.466,4.308 -50.593,4.244 -50.674,4.13C-51.462,3.011 -51.85,1.089 -51.76,-0.516C-51.746,-0.762 -51.529,-0.947 -51.282,-0.94C-34.649,-0.494 -18.121,-0.517 -0.745,-0.944C-0.55,-0.949 -0.367,-0.833 -0.295,-0.652C0.26,0.754 0.556,2.279 0.45,3.884C0.435,4.122 0.237,4.31 0,4.32" style="fill:rgb(26,46,53);fill-rule:nonzero;"/>
                </g>
                <g opacity="0.2">
                    <g transform="matrix(1,0,0,1,354.332,228.365)">
                        <path d="M0,4.32C-17.573,5.047 -37.725,5.269 -50.327,4.319C-50.466,4.308 -50.593,4.244 -50.674,4.13C-51.462,3.011 -51.85,1.089 -51.76,-0.516C-51.746,-0.762 -51.529,-0.947 -51.282,-0.94C-34.649,-0.494 -18.121,-0.517 -0.745,-0.944C-0.55,-0.949 -0.367,-0.833 -0.295,-0.652C0.26,0.754 0.556,2.279 0.45,3.884C0.435,4.122 0.237,4.31 0,4.32" style="fill-rule:nonzero;"/>
                    </g>
                </g>
                <g transform="matrix(-0.484354,0.874872,0.874872,0.484354,331.961,227.085)">
                    <path d="M5.846,-10.438C5.846,-10.438 9.55,-8.819 11.353,-6.782C10.022,-3.161 5.846,3.469 5.846,3.469C5.846,3.469 2.49,1.848 0.154,0.034C2.814,-5.347 5.846,-10.438 5.846,-10.438" style="fill:white;fill-rule:nonzero;"/>
                </g>
                <g transform="matrix(1,0,0,1,355.133,229.387)">
                    <path d="M0,-62.663L0.567,-62.158L1.02,-61.738L1.865,-60.922C2.417,-60.381 2.92,-59.834 3.427,-59.285C4.431,-58.192 5.377,-57.071 6.275,-55.931C8.071,-53.647 9.741,-51.301 11.236,-48.862C12.737,-46.428 14.144,-43.949 15.375,-41.392C16.65,-38.858 17.771,-36.26 18.77,-33.624C19.034,-32.919 19.245,-32.489 19.628,-31.278C19.952,-30.242 20.15,-29.23 20.262,-28.268C20.483,-26.334 20.391,-24.568 20.193,-22.914C19.791,-19.609 18.84,-16.74 17.801,-14.003C16.71,-11.288 15.459,-8.736 14.055,-6.301C12.638,-3.849 11.167,-1.568 9.383,0.733C8.198,2.26 6.001,2.537 4.475,1.354C3.257,0.409 2.834,-1.18 3.313,-2.559L3.374,-2.729C5.025,-7.46 6.676,-12.427 7.612,-17.118C8.102,-19.45 8.387,-21.775 8.368,-23.764C8.353,-24.753 8.235,-25.654 8.047,-26.339C7.826,-27.131 7.782,-27.076 7.073,-28.51C4.829,-32.952 2.368,-37.251 -0.409,-41.272C-1.781,-43.296 -3.246,-45.233 -4.747,-47.1C-5.491,-48.042 -6.275,-48.931 -7.041,-49.81L-8.199,-51.074L-8.76,-51.664L-9.024,-51.932C-9.09,-51.998 -9.219,-52.123 -9.189,-52.1C-12.106,-54.638 -12.413,-59.059 -9.876,-61.976C-7.338,-64.892 -2.917,-65.2 0,-62.663" style="fill:rgb(255,140,123);fill-rule:nonzero;"/>
                </g>
                <g transform="matrix(-0.979504,0.201423,0.201423,0.979504,359.648,186.919)">
                    <path d="M7.06,-30.915C-0.298,-28.024 -6.037,-17.366 -8.831,-7.998C-1.772,-0.242 7.06,1.211 7.06,1.211C7.06,1.211 14.213,-9.343 16.482,-16.47C18.75,-23.599 13.983,-33.637 7.06,-30.915" style="fill:rgb(0,124,255);fill-rule:nonzero;"/>
                </g>
                <g transform="matrix(-0.743084,-0.669198,-0.669198,0.743084,349.168,184.018)">
                    <path d="M-7.012,-17.989C-7.012,-17.989 -9.256,-17.661 -10.104,-16.988C-10.613,-13.447 -12.416,-4.358 -7.012,2.597C-5.323,2.894 -4.253,2.179 -4.253,2.179C-4.253,2.179 -8.501,-8.055 -7.012,-17.989" style="fill:rgb(26,46,53);fill-rule:nonzero;"/>
                </g>
                <g transform="matrix(-0.023187,0.999731,0.999731,0.023187,346.626,152.354)">
                    <path d="M5.143,-5.64C4.49,-7.266 3.557,-6.646 3.557,-6.646C3.557,-6.646 3.648,0.768 5.143,5.875C6.013,6.648 7.101,5.791 7.101,5.791C7.101,5.791 7.078,-0.811 5.143,-5.64" style="fill:rgb(26,46,53);fill-rule:nonzero;"/>
                </g>
                <g opacity="0.2">
                    <g transform="matrix(-0.975954,-0.217978,-0.217978,0.975954,331.056,171.181)">
                        <path d="M-4.279,-16.961C-4.279,-16.961 -3.915,-10.879 2.537,-4.537C-0.746,-5.247 -4.279,0.224 -4.279,0.224C-4.279,0.224 -9.276,-9.315 -5.968,-16.889C-5.355,-17.491 -4.279,-16.961 -4.279,-16.961" style="fill-rule:nonzero;"/>
                    </g>
                </g>
                <g transform="matrix(-0.97569,-0.219153,-0.219153,0.97569,331.392,169.022)">
                    <path d="M-3.954,-15.772C-3.954,-15.772 -3.396,-9.144 2.397,-2.354C-0.885,-3.067 -3.954,-0.057 -3.954,-0.057C-3.954,-0.057 -9.41,-7.147 -6.093,-14.715C-5.479,-15.318 -3.954,-15.772 -3.954,-15.772" style="fill:rgb(0,124,255);fill-rule:nonzero;"/>
                </g>
                <g transform="matrix(0,-1,-1,0,335.437,176.334)">
                    <path d="M-2.236,-10.473C-10.877,-10.008 -12.932,-4.548 -12.932,-3.776C-12.932,-3.004 -10.877,2.236 -2.236,1.772L0.223,-4.483L-2.236,-10.473Z" style="fill:white;fill-rule:nonzero;"/>
                </g>
                <g transform="matrix(-0.758065,0.652179,0.652179,0.758065,363.574,235.148)">
                    <path d="M-2.715,-9.598L5.407,-9.598L2.678,-0.248C2.678,-0.248 -4.676,-1.14 -4.833,-5.124L-2.715,-9.598Z" style="fill:rgb(255,140,123);fill-rule:nonzero;"/>
                </g>
                <g transform="matrix(1,0,0,1,352.517,233.325)">
                    <path d="M0,6.482L3.176,7.86C4.441,8.408 5.916,7.961 6.663,6.801L8.865,3.382L0.698,-1.926L-1.438,2.725C-2.096,4.159 -1.447,5.854 0,6.482" style="fill:rgb(255,140,123);fill-rule:nonzero;"/>
                </g>
                <g transform="matrix(1,0,0,1,317.695,124.709)">
                    <path d="M0,-5.574C-5.488,-4.834 -3.643,-3.088 8.597,-1.525C20.837,0.037 23.9,-1.195 23.9,-1.195C23.9,-1.195 9.846,-5.611 0,-5.574" style="fill:rgb(26,46,53);fill-rule:nonzero;"/>
                </g>
                <g transform="matrix(1,0,0,1,345.387,102.46)">
                    <path d="M0,23.431C0,23.431 -10.749,19.056 -27.692,16.675C-27.9,14.185 -25.848,11.545 -25.848,11.545C-25.848,11.545 -29.624,9.65 -28.452,6.035C-27.28,2.421 -21.881,2.902 -15.572,0C-13.258,2.544 -6.91,6.672 -2.579,7.202C-1.504,9.409 1.294,14.936 5.831,17.072C5.766,19.481 1.255,20.106 1.255,20.106C1.255,20.106 1.467,21.729 0,23.431" style="fill:rgb(0,124,255);fill-rule:nonzero;"/>
                </g>
                <g opacity="0.3">
                    <g transform="matrix(0.117703,-0.993049,-0.993049,-0.117703,337.23,105.213)">
                        <path d="M-16.124,-11.389C-13.041,-7.068 -8.216,7.567 -10.813,16.533C-10.813,16.533 -13.676,18.26 -16.124,17.76C-16.494,0.655 -19.574,-10.534 -19.574,-10.534C-17.71,-11.791 -16.124,-11.389 -16.124,-11.389" style="fill-rule:nonzero;"/>
                    </g>
                </g>
                <g transform="matrix(0.0924185,-0.99572,-0.99572,-0.0924185,324.285,107.088)">
                    <path d="M-2.079,-7.378C-8.328,-6.744 -9.816,-2.66 -9.815,-2.092C-9.815,-1.525 -8.328,2.259 -2.079,1.625L-0.3,-3.057L-2.079,-7.378Z" style="fill:white;fill-rule:nonzero;"/>
                </g>
                <g transform="matrix(1,0,0,1,251.749,147.424)">
                    <path d="M0,63.355C-1.245,63.355 -2.323,62.426 -2.479,61.16L-9.617,2.962C-9.785,1.591 -8.81,0.344 -7.439,0.176C-6.072,0 -4.822,0.983 -4.654,2.353L2.484,60.55C2.652,61.921 1.678,63.168 0.307,63.336C0.204,63.349 0.101,63.355 0,63.355" style="fill:rgb(26,46,53);fill-rule:nonzero;"/>
                </g>
                <g transform="matrix(0.990523,0.137349,0.137349,-0.990523,250.045,184.089)">
                    <path d="M0.18,-0.494C-0.725,1.641 0.362,2.132 -1.17,5.127C-1.986,6.72 -0.249,8.278 0.18,6.968C1.746,2.19 8.642,0.351 6.808,-3.06C4.943,-6.525 1.086,-2.63 0.18,-0.494" style="fill:rgb(255,140,123);fill-rule:nonzero;"/>
                </g>
                <g transform="matrix(0.615757,-0.787936,-0.787936,-0.615757,293.164,83.5281)">
                    <path d="M-44.687,-21.792C-76.009,-21.792 -101.401,3.6 -101.401,34.922C-101.401,66.244 -76.009,91.636 -44.687,91.636C-13.365,91.636 12.027,66.244 12.027,34.922C12.027,3.6 -13.364,-21.791 -44.687,-21.792" style="fill:rgb(0,124,255);fill-rule:nonzero;"/>
                </g>
                <g transform="matrix(-0.121745,-0.992561,-0.992561,0.121745,227.063,52.7916)">
                    <path d="M-45.46,-51.376C-70.755,-51.377 -91.261,-30.871 -91.261,-5.575C-91.261,19.72 -70.756,40.226 -45.46,40.225C-20.165,40.226 0.341,19.72 0.341,-5.576C0.341,-30.871 -20.165,-51.376 -45.46,-51.376" style="fill:white;fill-rule:nonzero;"/>
                </g>
                <g transform="matrix(1,0,0,1,267.872,105.905)">
                    <path d="M0,-16.419C-3.763,-21.491 -10.971,-16.416 -13.17,-11.072C-13.753,-9.656 -14.32,-7.832 -14.327,-6.923L-16.71,-23.24L-18.605,-38.694C-18.983,-41.773 -21.978,-43.82 -24.983,-43.054C-27.492,-42.414 -29.134,-40.011 -28.819,-37.441L-29.292,-41.293C-29.669,-44.371 -32.664,-46.418 -35.67,-45.652C-38.178,-45.013 -39.821,-42.608 -39.505,-40.04L-38.847,-34.672C-39.225,-37.751 -42.22,-39.798 -45.225,-39.031C-47.733,-38.392 -49.376,-35.988 -49.061,-33.419L-48.24,-26.729C-48.618,-29.808 -51.613,-31.855 -54.618,-31.088C-57.126,-30.448 -58.769,-28.045 -58.454,-25.476L-56.813,-12.104L-55.637,-2.516L-54.093,10.079C-52.995,19.029 -49.482,24.15 -44.268,26.44C-36.256,29.958 -21.623,29.999 -15.042,24.657C-9.285,19.986 -5.579,8.731 -4.687,1.767C-3.8,-5.162 1.524,-14.364 0,-16.419" style="fill:rgb(26,46,53);fill-rule:nonzero;"/>
                </g>
                <g transform="matrix(-0.787932,-0.615762,-0.615762,0.787932,289.842,78.2497)">
                    <rect x="23.13" y="-7.966" width="11.849" height="109.533" style="fill:rgb(0,124,255);"/>
                </g>
            </g>
            <g transform="matrix(1.17194,0,0,1.17194,-150.642,114.436)">
                <path d="M340.274,735.901L366.664,667.182L376.461,667.182L404.586,735.901L394.227,735.901L386.211,715.088L357.477,715.088L349.93,735.901L340.274,735.901ZM360.102,707.682L383.399,707.682L376.227,688.651C374.039,682.87 372.414,678.12 371.352,674.401C370.477,678.807 369.242,683.182 367.649,687.526L360.102,707.682Z" style="fill-rule:nonzero;"/>
                <path d="M443.258,717.667L451.555,718.745C450.649,724.463 448.328,728.94 444.594,732.174C440.86,735.409 436.274,737.026 430.836,737.026C424.024,737.026 418.547,734.799 414.406,730.346C410.266,725.893 408.195,719.51 408.195,711.198C408.195,705.823 409.086,701.12 410.867,697.088C412.649,693.057 415.36,690.034 419,688.018C422.641,686.003 426.602,684.995 430.883,684.995C436.289,684.995 440.711,686.362 444.149,689.096C447.586,691.831 449.789,695.713 450.758,700.745L442.555,702.01C441.774,698.667 440.391,696.151 438.406,694.463C436.422,692.776 434.024,691.932 431.211,691.932C426.961,691.932 423.508,693.456 420.852,696.503C418.195,699.549 416.867,704.37 416.867,710.963C416.867,717.651 418.149,722.51 420.711,725.542C423.274,728.573 426.617,730.088 430.742,730.088C434.055,730.088 436.82,729.073 439.039,727.042C441.258,725.01 442.664,721.885 443.258,717.667Z" style="fill-rule:nonzero;"/>
                <path d="M492.852,719.87L501.57,720.948C500.195,726.042 497.649,729.995 493.93,732.807C490.211,735.62 485.461,737.026 479.68,737.026C472.399,737.026 466.625,734.784 462.36,730.299C458.094,725.815 455.961,719.526 455.961,711.432C455.961,703.057 458.117,696.557 462.43,691.932C466.742,687.307 472.336,684.995 479.211,684.995C485.867,684.995 491.305,687.26 495.524,691.792C499.742,696.323 501.852,702.698 501.852,710.917C501.852,711.417 501.836,712.167 501.805,713.167L464.68,713.167C464.992,718.635 466.539,722.823 469.32,725.729C472.102,728.635 475.57,730.088 479.727,730.088C482.82,730.088 485.461,729.276 487.649,727.651C489.836,726.026 491.57,723.432 492.852,719.87ZM465.149,706.229L492.945,706.229C492.57,702.042 491.508,698.901 489.758,696.807C487.07,693.557 483.586,691.932 479.305,691.932C475.43,691.932 472.172,693.229 469.531,695.823C466.891,698.417 465.43,701.885 465.149,706.229Z" style="fill-rule:nonzero;"/>
                <path d="M508.789,721.042L517.133,719.729C517.602,723.073 518.906,725.635 521.047,727.417C523.188,729.198 526.18,730.088 530.024,730.088C533.899,730.088 536.774,729.299 538.649,727.721C540.524,726.143 541.461,724.292 541.461,722.167C541.461,720.26 540.633,718.76 538.977,717.667C537.82,716.917 534.945,715.963 530.352,714.807C524.164,713.245 519.875,711.893 517.485,710.753C515.094,709.612 513.281,708.034 512.047,706.018C510.813,704.003 510.195,701.776 510.195,699.338C510.195,697.12 510.703,695.065 511.719,693.174C512.735,691.284 514.117,689.713 515.867,688.463C517.18,687.495 518.969,686.674 521.235,686.003C523.5,685.331 525.93,684.995 528.524,684.995C532.43,684.995 535.86,685.557 538.813,686.682C541.766,687.807 543.945,689.331 545.352,691.253C546.758,693.174 547.727,695.745 548.258,698.963L540.008,700.088C539.633,697.526 538.547,695.526 536.75,694.088C534.953,692.651 532.414,691.932 529.133,691.932C525.258,691.932 522.492,692.573 520.836,693.854C519.18,695.135 518.352,696.635 518.352,698.354C518.352,699.448 518.695,700.432 519.383,701.307C520.07,702.213 521.149,702.963 522.617,703.557C523.461,703.87 525.945,704.588 530.07,705.713C536.039,707.307 540.203,708.612 542.563,709.628C544.922,710.643 546.774,712.12 548.117,714.057C549.461,715.995 550.133,718.401 550.133,721.276C550.133,724.088 549.313,726.737 547.672,729.221C546.031,731.706 543.664,733.628 540.57,734.987C537.477,736.346 533.977,737.026 530.07,737.026C523.602,737.026 518.672,735.682 515.281,732.995C511.891,730.307 509.727,726.323 508.789,721.042Z" style="fill-rule:nonzero;"/>
                <path d="M556.789,721.042L565.133,719.729C565.602,723.073 566.906,725.635 569.047,727.417C571.188,729.198 574.18,730.088 578.024,730.088C581.899,730.088 584.774,729.299 586.649,727.721C588.524,726.143 589.461,724.292 589.461,722.167C589.461,720.26 588.633,718.76 586.977,717.667C585.82,716.917 582.945,715.963 578.352,714.807C572.164,713.245 567.875,711.893 565.485,710.753C563.094,709.612 561.281,708.034 560.047,706.018C558.813,704.003 558.195,701.776 558.195,699.338C558.195,697.12 558.703,695.065 559.719,693.174C560.735,691.284 562.117,689.713 563.867,688.463C565.18,687.495 566.969,686.674 569.235,686.003C571.5,685.331 573.93,684.995 576.524,684.995C580.43,684.995 583.86,685.557 586.813,686.682C589.766,687.807 591.945,689.331 593.352,691.253C594.758,693.174 595.727,695.745 596.258,698.963L588.008,700.088C587.633,697.526 586.547,695.526 584.75,694.088C582.953,692.651 580.414,691.932 577.133,691.932C573.258,691.932 570.492,692.573 568.836,693.854C567.18,695.135 566.352,696.635 566.352,698.354C566.352,699.448 566.695,700.432 567.383,701.307C568.07,702.213 569.149,702.963 570.617,703.557C571.461,703.87 573.945,704.588 578.07,705.713C584.039,707.307 588.203,708.612 590.563,709.628C592.922,710.643 594.774,712.12 596.117,714.057C597.461,715.995 598.133,718.401 598.133,721.276C598.133,724.088 597.313,726.737 595.672,729.221C594.031,731.706 591.664,733.628 588.57,734.987C585.477,736.346 581.977,737.026 578.07,737.026C571.602,737.026 566.672,735.682 563.281,732.995C559.891,730.307 557.727,726.323 556.789,721.042Z" style="fill-rule:nonzero;"/>
                <path d="M605.024,711.01C605.024,701.792 607.586,694.963 612.711,690.526C616.992,686.838 622.211,684.995 628.367,684.995C635.211,684.995 640.805,687.237 645.149,691.721C649.492,696.206 651.664,702.401 651.664,710.307C651.664,716.713 650.703,721.753 648.781,725.424C646.86,729.096 644.063,731.948 640.391,733.979C636.719,736.01 632.711,737.026 628.367,737.026C621.399,737.026 615.766,734.792 611.469,730.323C607.172,725.854 605.024,719.417 605.024,711.01ZM613.695,711.01C613.695,717.385 615.086,722.159 617.867,725.331C620.649,728.503 624.149,730.088 628.367,730.088C632.555,730.088 636.039,728.495 638.82,725.307C641.602,722.12 642.992,717.26 642.992,710.729C642.992,704.573 641.594,699.909 638.797,696.737C636,693.565 632.524,691.979 628.367,691.979C624.149,691.979 620.649,693.557 617.867,696.713C615.086,699.87 613.695,704.635 613.695,711.01Z" style="fill-rule:nonzero;"/>
                <path d="M689.07,667.182L708.899,667.182L734.774,705.201L734.774,667.182L754.789,667.182L754.789,735.901L734.774,735.901L709.039,698.17L709.039,735.901L689.07,735.901L689.07,667.182Z" style="fill:rgb(255,0,6);fill-rule:nonzero;"/>
                <path d="M811.146,724.557L787.038,724.557L783.689,735.901L762.008,735.901L787.836,667.182L810.998,667.182L836.82,735.901L814.584,735.901L811.146,724.557ZM806.741,709.698L799.156,684.995L791.651,709.698L806.741,709.698ZM808.742,650.12L816.149,650.12C816.18,650.932 816.195,651.635 816.195,652.229C816.195,655.698 815.32,658.385 813.57,660.292C811.82,662.198 809.57,663.151 806.82,663.151C804.82,663.151 801.789,662.323 797.727,660.667C795.258,659.667 793.555,659.167 792.617,659.167C791.711,659.167 791.008,659.448 790.508,660.01C790.008,660.573 789.742,661.573 789.711,663.01L782.399,663.01C782.367,662.26 782.352,661.604 782.352,661.042C782.352,657.698 783.274,655.042 785.117,653.073C786.961,651.104 789.149,650.12 791.68,650.12C792.774,650.12 793.805,650.245 794.774,650.495C795.742,650.745 797.531,651.417 800.141,652.51C802.75,653.604 804.649,654.151 805.836,654.151C806.68,654.151 807.36,653.862 807.875,653.284C808.391,652.706 808.68,651.651 808.742,650.12Z" style="fill:rgb(255,0,6);fill-rule:nonzero;"/>
                <path d="M840.899,701.588C840.899,690.37 844.024,681.635 850.274,675.385C856.524,669.135 865.227,666.01 876.383,666.01C887.82,666.01 896.633,669.081 902.82,675.221C909.008,681.362 912.102,689.963 912.102,701.026C912.102,709.057 910.75,715.643 908.047,720.784C905.344,725.924 901.438,729.924 896.328,732.784C891.219,735.643 884.852,737.073 877.227,737.073C869.477,737.073 863.063,735.838 857.985,733.37C852.906,730.901 848.789,726.995 845.633,721.651C842.477,716.307 840.899,709.62 840.899,701.588ZM862.133,701.682C862.133,708.62 863.422,713.604 866,716.635C868.578,719.667 872.086,721.182 876.524,721.182C881.086,721.182 884.617,719.698 887.117,716.729C889.617,713.76 890.867,708.432 890.867,700.745C890.867,694.276 889.563,689.549 886.953,686.565C884.344,683.581 880.805,682.088 876.336,682.088C872.055,682.088 868.617,683.604 866.024,686.635C863.43,689.667 862.133,694.682 862.133,701.682Z" style="fill:rgb(255,0,6);fill-rule:nonzero;"/>
                <path d="M340.274,835.042L366.664,766.323L376.461,766.323L404.586,835.042L394.227,835.042L386.211,814.229L357.477,814.229L349.93,835.042L340.274,835.042ZM360.102,806.823L383.399,806.823L376.227,787.792C374.039,782.01 372.414,777.26 371.352,773.542C370.477,777.948 369.242,782.323 367.649,786.667L360.102,806.823Z" style="fill-rule:nonzero;"/>
                <path d="M443.399,835.042L443.399,827.729C439.524,833.354 434.258,836.167 427.602,836.167C424.664,836.167 421.922,835.604 419.375,834.479C416.828,833.354 414.938,831.94 413.703,830.237C412.469,828.534 411.602,826.448 411.102,823.979C410.758,822.323 410.586,819.698 410.586,816.104L410.586,785.26L419.024,785.26L419.024,812.87C419.024,817.276 419.195,820.245 419.539,821.776C420.07,823.995 421.195,825.737 422.914,827.003C424.633,828.268 426.758,828.901 429.289,828.901C431.82,828.901 434.195,828.253 436.414,826.956C438.633,825.659 440.203,823.893 441.125,821.659C442.047,819.424 442.508,816.182 442.508,811.932L442.508,785.26L450.945,785.26L450.945,835.042L443.399,835.042Z" style="fill-rule:nonzero;"/>
                <path d="M482.586,827.495L483.805,834.948C481.43,835.448 479.305,835.698 477.43,835.698C474.367,835.698 471.992,835.213 470.305,834.245C468.617,833.276 467.43,832.003 466.742,830.424C466.055,828.846 465.711,825.526 465.711,820.463L465.711,791.823L459.524,791.823L459.524,785.26L465.711,785.26L465.711,772.932L474.102,767.87L474.102,785.26L482.586,785.26L482.586,791.823L474.102,791.823L474.102,820.932C474.102,823.338 474.25,824.885 474.547,825.573C474.844,826.26 475.328,826.807 476,827.213C476.672,827.62 477.633,827.823 478.883,827.823C479.82,827.823 481.055,827.713 482.586,827.495Z" style="fill-rule:nonzero;"/>
                <path d="M487.695,810.151C487.695,800.932 490.258,794.104 495.383,789.667C499.664,785.979 504.883,784.135 511.039,784.135C517.883,784.135 523.477,786.378 527.82,790.862C532.164,795.346 534.336,801.542 534.336,809.448C534.336,815.854 533.375,820.893 531.453,824.565C529.531,828.237 526.735,831.088 523.063,833.12C519.391,835.151 515.383,836.167 511.039,836.167C504.07,836.167 498.438,833.932 494.141,829.463C489.844,824.995 487.695,818.557 487.695,810.151ZM496.367,810.151C496.367,816.526 497.758,821.299 500.539,824.471C503.32,827.643 506.82,829.229 511.039,829.229C515.227,829.229 518.711,827.635 521.492,824.448C524.274,821.26 525.664,816.401 525.664,809.87C525.664,803.713 524.266,799.049 521.469,795.878C518.672,792.706 515.195,791.12 511.039,791.12C506.82,791.12 503.32,792.698 500.539,795.854C497.758,799.01 496.367,803.776 496.367,810.151Z" style="fill-rule:nonzero;"/>
                <path d="M544.133,835.042L544.133,785.26L551.727,785.26L551.727,792.807C553.664,789.276 555.453,786.948 557.094,785.823C558.735,784.698 560.539,784.135 562.508,784.135C565.352,784.135 568.242,785.042 571.18,786.854L568.274,794.682C566.211,793.463 564.149,792.854 562.086,792.854C560.242,792.854 558.586,793.409 557.117,794.518C555.649,795.628 554.602,797.167 553.977,799.135C553.039,802.135 552.57,805.417 552.57,808.979L552.57,835.042L544.133,835.042Z" style="fill-rule:nonzero;"/>
                <path d="M576.242,776.026L576.242,766.323L584.68,766.323L584.68,776.026L576.242,776.026ZM576.242,835.042L576.242,785.26L584.68,785.26L584.68,835.042L576.242,835.042Z" style="fill-rule:nonzero;"/>
                <path d="M593.07,835.042L593.07,828.198L624.758,791.823C621.164,792.01 617.992,792.104 615.242,792.104L594.945,792.104L594.945,785.26L635.633,785.26L635.633,790.838L608.68,822.432L603.477,828.198C607.258,827.917 610.805,827.776 614.117,827.776L637.133,827.776L637.133,835.042L593.07,835.042Z" style="fill-rule:nonzero;"/>
                <path d="M678.008,828.901C674.883,831.557 671.875,833.432 668.985,834.526C666.094,835.62 662.992,836.167 659.68,836.167C654.211,836.167 650.008,834.831 647.07,832.159C644.133,829.487 642.664,826.073 642.664,821.917C642.664,819.479 643.219,817.253 644.328,815.237C645.438,813.221 646.891,811.604 648.688,810.385C650.485,809.167 652.508,808.245 654.758,807.62C656.414,807.182 658.914,806.76 662.258,806.354C669.07,805.542 674.086,804.573 677.305,803.448C677.336,802.292 677.352,801.557 677.352,801.245C677.352,797.807 676.555,795.385 674.961,793.979C672.805,792.073 669.602,791.12 665.352,791.12C661.383,791.12 658.453,791.815 656.563,793.206C654.672,794.596 653.274,797.057 652.367,800.588L644.117,799.463C644.867,795.932 646.102,793.081 647.82,790.909C649.539,788.737 652.024,787.065 655.274,785.893C658.524,784.721 662.289,784.135 666.57,784.135C670.82,784.135 674.274,784.635 676.93,785.635C679.586,786.635 681.539,787.893 682.789,789.409C684.039,790.924 684.914,792.838 685.414,795.151C685.695,796.588 685.836,799.182 685.836,802.932L685.836,814.182C685.836,822.026 686.016,826.987 686.375,829.065C686.735,831.143 687.445,833.135 688.508,835.042L679.695,835.042C678.82,833.292 678.258,831.245 678.008,828.901ZM677.305,810.057C674.242,811.307 669.649,812.37 663.524,813.245C660.055,813.745 657.602,814.307 656.164,814.932C654.727,815.557 653.617,816.471 652.836,817.674C652.055,818.878 651.664,820.213 651.664,821.682C651.664,823.932 652.516,825.807 654.219,827.307C655.922,828.807 658.414,829.557 661.695,829.557C664.945,829.557 667.836,828.846 670.367,827.424C672.899,826.003 674.758,824.057 675.945,821.588C676.852,819.682 677.305,816.87 677.305,813.151L677.305,810.057Z" style="fill-rule:nonzero;"/>
                <path d="M731.211,835.042L731.211,828.76C728.055,833.698 723.414,836.167 717.289,836.167C713.32,836.167 709.672,835.073 706.344,832.885C703.016,830.698 700.438,827.643 698.61,823.721C696.781,819.799 695.867,815.292 695.867,810.198C695.867,805.229 696.695,800.721 698.352,796.674C700.008,792.628 702.492,789.526 705.805,787.37C709.117,785.213 712.82,784.135 716.914,784.135C719.914,784.135 722.586,784.768 724.93,786.034C727.274,787.299 729.18,788.948 730.649,790.979L730.649,766.323L739.039,766.323L739.039,835.042L731.211,835.042ZM704.539,810.198C704.539,816.573 705.883,821.338 708.57,824.495C711.258,827.651 714.43,829.229 718.086,829.229C721.774,829.229 724.906,827.721 727.485,824.706C730.063,821.69 731.352,817.088 731.352,810.901C731.352,804.088 730.039,799.088 727.414,795.901C724.789,792.713 721.555,791.12 717.711,791.12C713.961,791.12 710.828,792.651 708.313,795.713C705.797,798.776 704.539,803.604 704.539,810.198Z" style="fill-rule:nonzero;"/>
                <path d="M749.164,810.151C749.164,800.932 751.727,794.104 756.852,789.667C761.133,785.979 766.352,784.135 772.508,784.135C779.352,784.135 784.945,786.378 789.289,790.862C793.633,795.346 795.805,801.542 795.805,809.448C795.805,815.854 794.844,820.893 792.922,824.565C791,828.237 788.203,831.088 784.531,833.12C780.86,835.151 776.852,836.167 772.508,836.167C765.539,836.167 759.906,833.932 755.61,829.463C751.313,824.995 749.164,818.557 749.164,810.151ZM757.836,810.151C757.836,816.526 759.227,821.299 762.008,824.471C764.789,827.643 768.289,829.229 772.508,829.229C776.695,829.229 780.18,827.635 782.961,824.448C785.742,821.26 787.133,816.401 787.133,809.87C787.133,803.713 785.735,799.049 782.938,795.878C780.141,792.706 776.664,791.12 772.508,791.12C768.289,791.12 764.789,792.698 762.008,795.854C759.227,799.01 757.836,803.776 757.836,810.151Z" style="fill-rule:nonzero;"/>
            </g>
        </g>
    </g>
</svg>
