<?xml version="1.0" encoding="UTF-8" standalone="no"?>
<!DOCTYPE svg PUBLIC "-//W3C//DTD SVG 1.1//EN" "http://www.w3.org/Graphics/SVG/1.1/DTD/svg11.dtd">
<svg width="100%" height="100%" viewBox="0 0 397 394" version="1.1" xmlns="http://www.w3.org/2000/svg" xmlns:xlink="http://www.w3.org/1999/xlink" xml:space="preserve" xmlns:serif="http://www.serif.com/" style="fill-rule:evenodd;clip-rule:evenodd;stroke-linejoin:round;stroke-miterlimit:2;">
    <g transform="matrix(11.1743,0,0,11.1743,7.92577,6.98463)">
        <g>
            <g transform="matrix(0.948179,0,0,0.948179,0,0)">
                <path d="M0,10C0,4.477 4.477,0 10,0L26,0C31.523,0 36,4.477 36,10L36,26C36,31.523 31.523,36 26,36L10,36C4.477,36 0,31.523 0,26L0,10Z" style="fill:url(#_Linear1);fill-rule:nonzero;"/>
            </g>
            <g transform="matrix(0.948179,0,0,0.948179,0,0)">
                <path d="M20.85,25.023C20.85,25.765 21.813,26.056 22.224,25.439L27.673,17.266C28.005,16.768 27.648,16.1 27.049,16.1L22.75,16.1L22.75,10.977C22.75,10.235 21.788,9.944 21.376,10.561L15.928,18.734C15.596,19.232 15.953,19.9 16.552,19.9L20.85,19.9L20.85,25.023Z" style="fill:white;"/>
            </g>
            <g transform="matrix(0.948179,0,0,0.948179,0,0)">
                <path d="M9.449,12.775C9.449,11.988 10.087,11.35 10.874,11.35L15.624,11.35C16.411,11.35 17.049,11.988 17.049,12.775C17.049,13.562 16.411,14.2 15.624,14.2L10.874,14.2C10.087,14.2 9.449,13.562 9.449,12.775ZM9.449,24.175C9.449,23.388 10.087,22.75 10.874,22.75L15.624,22.75C16.411,22.75 17.049,23.388 17.049,24.175C17.049,24.962 16.411,25.6 15.624,25.6L10.874,25.6C10.087,25.6 9.449,24.962 9.449,24.175ZM8.974,17.05C8.187,17.05 7.549,17.688 7.549,18.475C7.549,19.262 8.187,19.9 8.974,19.9L12.774,19.9C13.561,19.9 14.199,19.262 14.199,18.475C14.199,17.688 13.561,17.05 12.774,17.05L8.974,17.05Z" style="fill:white;fill-opacity:0.3;"/>
            </g>
        </g>
    </g>
    <defs>
        <linearGradient id="_Linear1" x1="0" y1="0" x2="1" y2="0" gradientUnits="userSpaceOnUse" gradientTransform="matrix(-36,36,-36,-36,36,0)"><stop offset="0" style="stop-color:rgb(214,101,255);stop-opacity:1"/><stop offset="1" style="stop-color:rgb(76,111,255);stop-opacity:1"/></linearGradient>
    </defs>
</svg>
