<?xml version="1.0" encoding="UTF-8" standalone="no"?>
<!DOCTYPE svg PUBLIC "-//W3C//DTD SVG 1.1//EN" "http://www.w3.org/Graphics/SVG/1.1/DTD/svg11.dtd">
<svg width="100%" height="100%" viewBox="0 0 106 32" version="1.1" xmlns="http://www.w3.org/2000/svg" xmlns:xlink="http://www.w3.org/1999/xlink" xml:space="preserve" xmlns:serif="http://www.serif.com/" style="fill-rule:evenodd;clip-rule:evenodd;stroke-linejoin:round;stroke-miterlimit:2;">
    <g id="Prancheta1" transform="matrix(1,0,0,1,0,-2.44332)">
        <rect x="0" y="2.443" width="105.731" height="31.113" style="fill:none;"/>
        <g transform="matrix(0.833072,0,0,0.833072,0,4.2631)">
            <g transform="matrix(0.845168,0,0,0.845168,0,2.0648)">
                <g transform="matrix(0.948179,0,0,0.948179,0,0)">
                    <path d="M0,10C0,4.477 4.477,0 10,0L26,0C31.523,0 36,4.477 36,10L36,26C36,31.523 31.523,36 26,36L10,36C4.477,36 0,31.523 0,26L0,10Z" style="fill:url(#_Linear1);fill-rule:nonzero;"/>
                </g>
                <g transform="matrix(0.948179,0,0,0.948179,0,0)">
                    <path d="M20.85,25.023C20.85,25.765 21.813,26.056 22.224,25.439L27.673,17.266C28.005,16.768 27.648,16.1 27.049,16.1L22.75,16.1L22.75,10.977C22.75,10.235 21.788,9.944 21.376,10.561L15.928,18.734C15.596,19.232 15.953,19.9 16.552,19.9L20.85,19.9L20.85,25.023Z" style="fill:white;"/>
                </g>
                <g transform="matrix(0.948179,0,0,0.948179,0,0)">
                    <path d="M9.449,12.775C9.449,11.988 10.087,11.35 10.874,11.35L15.624,11.35C16.411,11.35 17.049,11.988 17.049,12.775C17.049,13.562 16.411,14.2 15.624,14.2L10.874,14.2C10.087,14.2 9.449,13.562 9.449,12.775ZM9.449,24.175C9.449,23.388 10.087,22.75 10.874,22.75L15.624,22.75C16.411,22.75 17.049,23.388 17.049,24.175C17.049,24.962 16.411,25.6 15.624,25.6L10.874,25.6C10.087,25.6 9.449,24.962 9.449,24.175ZM8.974,17.05C8.187,17.05 7.549,17.688 7.549,18.475C7.549,19.262 8.187,19.9 8.974,19.9L12.774,19.9C13.561,19.9 14.199,19.262 14.199,18.475C14.199,17.688 13.561,17.05 12.774,17.05L8.974,17.05Z" style="fill:white;fill-opacity:0.3;"/>
                </g>
            </g>
            <g transform="matrix(0.851054,0,0,0.887483,2.37286,-1.36229)">
                <g transform="matrix(1.24391,0,0,1.24391,-17.518,0.0547528)">
                    <path d="M46.041,22.48L46.046,22.492C46.046,21.504 46.396,20.666 47.095,19.978C47.795,19.291 48.644,18.947 49.644,18.947C50.39,18.947 51.039,19.129 51.589,19.492C52.144,19.859 52.541,20.318 52.779,20.869L51.214,21.531C50.871,20.906 50.349,20.593 49.65,20.593C49.13,20.593 48.703,20.773 48.367,21.132C48.031,21.492 47.863,21.947 47.863,22.498C47.863,23.037 48.031,23.484 48.367,23.839C48.699,24.191 49.127,24.367 49.65,24.367C50.377,24.367 50.906,24.066 51.238,23.464L52.796,24.115C52.558,24.685 52.166,25.144 51.619,25.492C51.076,25.836 50.42,26.007 49.65,26.007C48.627,26.007 47.769,25.673 47.078,25.005C46.386,24.337 46.041,23.496 46.041,22.48Z" style="fill:url(#_Linear2);fill-rule:nonzero;"/>
                    <path d="M58.082,18.941L58.058,18.929C58.816,18.929 59.425,19.189 59.886,19.709C60.351,20.232 60.584,20.941 60.584,21.836L60.584,25.855L58.761,25.855L58.761,22.111C58.761,21.619 58.63,21.24 58.369,20.974C58.107,20.705 57.755,20.57 57.314,20.57C56.841,20.57 56.453,20.716 56.148,21.009C55.843,21.302 55.691,21.677 55.691,22.134L55.691,25.867L53.863,25.867L53.863,16.556L55.691,16.556L55.691,20.084C56.433,19.322 57.23,18.941 58.082,18.941Z" style="fill:url(#_Linear3);fill-rule:nonzero;"/>
                    <path d="M66.478,25.867L66.466,25.093C66.037,25.695 65.339,25.994 64.375,25.99C63.593,25.99 62.97,25.806 62.505,25.439C62.037,25.068 61.802,24.545 61.802,23.869C61.802,23.181 62.08,22.644 62.634,22.257C63.189,21.871 63.839,21.677 64.586,21.677C65.199,21.677 65.808,21.765 66.414,21.941C66.437,20.957 65.929,20.464 64.89,20.464C64.476,20.464 64.052,20.517 63.619,20.623C63.185,20.728 62.845,20.839 62.599,20.957L62.154,19.627C63.127,19.162 64.127,18.929 65.154,18.929C66.209,18.929 66.988,19.187 67.492,19.703C67.996,20.218 68.248,21.002 68.248,22.052L68.248,25.867L66.478,25.867ZM64.896,24.683L64.89,24.689C65.32,24.689 65.683,24.586 65.98,24.379C66.273,24.175 66.42,23.879 66.42,23.488L66.42,23.037C65.99,22.884 65.533,22.808 65.048,22.808C64.642,22.808 64.302,22.89 64.029,23.054C63.755,23.218 63.619,23.447 63.619,23.74C63.619,24.029 63.74,24.259 63.982,24.431C64.22,24.599 64.525,24.683 64.896,24.683Z" style="fill:url(#_Linear4);fill-rule:nonzero;"/>
                    <path d="M78.384,18.941L78.39,18.941C79.125,18.941 79.714,19.197 80.16,19.709C80.605,20.216 80.828,20.906 80.828,21.777L80.828,25.867L79.005,25.867L79.005,22.017C79.005,21.576 78.882,21.226 78.636,20.968C78.39,20.711 78.064,20.582 77.658,20.582C77.267,20.582 76.933,20.728 76.656,21.021C76.382,21.31 76.246,21.685 76.246,22.146L76.246,25.867L74.423,25.867L74.423,22.041C74.423,21.587 74.3,21.232 74.054,20.974C73.808,20.716 73.49,20.587 73.099,20.587C72.693,20.587 72.353,20.752 72.08,21.08C71.806,21.404 71.67,21.767 71.67,22.17L71.67,25.867L69.841,25.867L69.841,19.064L71.67,19.064L71.67,20.025C72.326,19.306 73.045,18.943 73.826,18.935C74.287,18.935 74.697,19.046 75.056,19.269C75.416,19.492 75.701,19.802 75.912,20.201C76.65,19.361 77.474,18.941 78.384,18.941Z" style="fill:url(#_Linear5);fill-rule:nonzero;"/>
                    <path d="M86.705,25.867L86.693,25.093C86.263,25.695 85.566,25.994 84.601,25.99C83.82,25.99 83.197,25.806 82.732,25.439C82.263,25.068 82.029,24.545 82.029,23.869C82.029,23.181 82.306,22.644 82.861,22.257C83.416,21.871 84.066,21.677 84.812,21.677C85.425,21.677 86.035,21.765 86.64,21.941C86.664,20.957 86.156,20.464 85.117,20.464C84.703,20.464 84.279,20.517 83.845,20.623C83.412,20.728 83.072,20.839 82.826,20.957L82.38,19.627C83.353,19.162 84.353,18.929 85.38,18.929C86.435,18.929 87.214,19.187 87.718,19.703C88.222,20.218 88.474,21.002 88.474,22.052L88.474,25.867L86.705,25.867ZM85.123,24.683L85.117,24.689C85.546,24.689 85.91,24.586 86.207,24.379C86.5,24.175 86.646,23.879 86.646,23.488L86.646,23.037C86.216,22.884 85.759,22.808 85.275,22.808C84.869,22.808 84.529,22.89 84.255,23.054C83.982,23.218 83.845,23.447 83.845,23.74C83.845,24.029 83.966,24.259 84.209,24.431C84.447,24.599 84.752,24.683 85.123,24.683Z" style="fill:url(#_Linear6);fill-rule:nonzero;"/>
                    <path d="M94.972,16.556L96.777,16.556L96.777,25.867L94.966,25.867L94.966,25.029C94.459,25.677 93.703,26.002 92.699,26.002C91.804,26.002 91.076,25.675 90.513,25.023C89.951,24.375 89.67,23.521 89.67,22.462C89.67,21.404 89.951,20.55 90.513,19.902C91.076,19.254 91.806,18.929 92.705,18.929C93.709,18.929 94.464,19.254 94.972,19.902L94.972,16.556ZM93.285,24.343C93.82,24.343 94.236,24.168 94.533,23.816C94.834,23.461 94.984,23.011 94.984,22.468C94.984,21.914 94.834,21.462 94.533,21.115C94.232,20.767 93.816,20.593 93.285,20.593C92.742,20.593 92.308,20.769 91.984,21.121C91.664,21.468 91.504,21.92 91.504,22.474C91.504,23.021 91.664,23.468 91.984,23.816C92.308,24.168 92.742,24.343 93.285,24.343Z" style="fill:url(#_Linear7);fill-rule:nonzero;"/>
                    <path d="M104.3,24.964C103.613,25.656 102.746,26.002 101.699,26.002C100.652,26.002 99.785,25.656 99.097,24.964C98.41,24.269 98.066,23.431 98.066,22.451C98.066,21.47 98.41,20.636 99.097,19.949C99.781,19.265 100.648,18.923 101.699,18.923C102.75,18.923 103.617,19.265 104.3,19.949C104.988,20.636 105.332,21.47 105.332,22.451C105.332,23.431 104.988,24.269 104.3,24.964ZM101.693,20.564L101.693,20.57C101.15,20.57 100.714,20.748 100.386,21.103C100.058,21.459 99.894,21.912 99.894,22.462C99.894,23.005 100.058,23.459 100.386,23.822C100.714,24.185 101.15,24.367 101.693,24.367C102.244,24.367 102.683,24.187 103.011,23.828C103.339,23.468 103.504,23.013 103.504,22.462C103.504,21.912 103.339,21.457 103.011,21.097C102.683,20.742 102.244,20.564 101.693,20.564Z" style="fill:url(#_Linear8);fill-rule:nonzero;"/>
                    <path d="M109.246,26.048L109.281,26.043C108.07,26.043 107.046,25.738 106.211,25.129L106.867,23.939C107.164,24.134 107.537,24.3 107.986,24.437C108.42,24.57 108.824,24.636 109.199,24.636C109.91,24.636 110.265,24.437 110.265,24.039C110.265,23.843 110.166,23.683 109.966,23.558C109.763,23.433 109.517,23.347 109.228,23.3C108.962,23.257 108.644,23.189 108.273,23.095C107.929,23.005 107.607,22.9 107.306,22.779C107.005,22.658 106.759,22.453 106.568,22.164C106.373,21.875 106.275,21.519 106.275,21.097C106.275,20.41 106.533,19.879 107.048,19.504C107.564,19.129 108.214,18.941 109,18.941C110.031,18.941 110.906,19.181 111.625,19.662L111.05,20.886C110.402,20.519 109.728,20.336 109.029,20.336C108.365,20.336 108.033,20.539 108.033,20.945C108.033,21.164 108.168,21.328 108.437,21.437C108.707,21.546 109.035,21.634 109.421,21.701C109.808,21.767 110.195,21.855 110.582,21.964C110.968,22.074 111.296,22.291 111.566,22.615C111.836,22.939 111.97,23.361 111.97,23.88C111.97,24.564 111.724,25.097 111.232,25.48C110.744,25.859 110.082,26.048 109.246,26.048Z" style="fill:url(#_Linear9);fill-rule:nonzero;"/>
                </g>
                <g transform="matrix(1.24391,0,0,1.24391,-17.518,-14.0457)">
                    <path d="M46.041,22.48L46.046,22.492C46.046,21.504 46.396,20.666 47.095,19.978C47.795,19.291 48.644,18.947 49.644,18.947C50.39,18.947 51.039,19.129 51.589,19.492C52.144,19.859 52.541,20.318 52.779,20.869L51.214,21.531C50.871,20.906 50.349,20.593 49.65,20.593C49.13,20.593 48.703,20.773 48.367,21.132C48.031,21.492 47.863,21.947 47.863,22.498C47.863,23.037 48.031,23.484 48.367,23.839C48.699,24.191 49.127,24.367 49.65,24.367C50.377,24.367 50.906,24.066 51.238,23.464L52.796,24.115C52.558,24.685 52.166,25.144 51.619,25.492C51.076,25.836 50.42,26.007 49.65,26.007C48.627,26.007 47.769,25.673 47.078,25.005C46.386,24.337 46.041,23.496 46.041,22.48Z" style="fill:url(#_Linear10);fill-rule:nonzero;"/>
                    <path d="M59.711,24.964C59.023,25.656 58.156,26.002 57.109,26.002C56.062,26.002 55.195,25.656 54.507,24.964C53.82,24.269 53.476,23.431 53.476,22.451C53.476,21.47 53.82,20.636 54.507,19.949C55.191,19.265 56.058,18.923 57.109,18.923C58.16,18.923 59.027,19.265 59.711,19.949C60.398,20.636 60.742,21.47 60.742,22.451C60.742,23.431 60.398,24.269 59.711,24.964ZM57.103,20.564L57.103,20.57C56.56,20.57 56.125,20.748 55.796,21.103C55.468,21.459 55.304,21.912 55.304,22.462C55.304,23.005 55.468,23.459 55.796,23.822C56.125,24.185 56.56,24.367 57.103,24.367C57.654,24.367 58.093,24.187 58.421,23.828C58.75,23.468 58.914,23.013 58.914,22.462C58.914,21.912 58.75,21.457 58.421,21.097C58.093,20.742 57.654,20.564 57.103,20.564Z" style="fill:url(#_Linear11);fill-rule:nonzero;"/>
                    <path d="M66.238,18.929L66.22,18.912C66.974,18.912 67.584,19.175 68.048,19.703C68.513,20.234 68.746,20.945 68.746,21.836L68.746,25.855L66.923,25.855L66.923,22.111C66.923,21.619 66.793,21.24 66.531,20.974C66.265,20.705 65.914,20.57 65.476,20.57C65.004,20.57 64.615,20.716 64.31,21.009C64.005,21.302 63.853,21.677 63.853,22.134L63.853,25.867L62.025,25.867L62.025,19.064L63.853,19.064L63.853,20.084C64.603,19.314 65.398,18.929 66.238,18.929Z" style="fill:url(#_Linear12);fill-rule:nonzero;"/>
                    <path d="M72.56,20.693L72.56,23.629C72.56,24.179 72.837,24.455 73.392,24.455C73.486,24.455 73.591,24.445 73.709,24.425C73.814,24.41 73.896,24.392 73.955,24.373L74.037,24.337L74.324,25.703C73.976,25.898 73.464,25.998 72.789,26.002C72.136,26.002 71.632,25.847 71.277,25.539C70.918,25.226 70.738,24.779 70.738,24.197L70.738,20.693L70.005,20.693L70.005,20.013L72.466,17.541L72.56,17.541L72.56,19.064L74.025,19.064L74.025,20.693L72.56,20.693Z" style="fill:url(#_Linear13);fill-rule:nonzero;"/>
                    <path d="M77.277,20.429L77.277,20.423C77.863,19.462 78.699,18.982 79.785,18.982L79.785,20.916L79.568,20.916C78.908,20.916 78.361,21.097 77.927,21.461C77.494,21.824 77.277,22.421 77.277,23.254L77.277,25.867L75.449,25.867L75.449,19.064L77.277,19.064L77.277,20.429Z" style="fill:url(#_Linear14);fill-rule:nonzero;"/>
                    <path d="M86.687,24.964C86,25.656 85.132,26.002 84.086,26.002C83.039,26.002 82.171,25.656 81.484,24.964C80.796,24.269 80.453,23.431 80.453,22.451C80.453,21.47 80.796,20.636 81.484,19.949C82.168,19.265 83.035,18.923 84.086,18.923C85.136,18.923 86.004,19.265 86.687,19.949C87.375,20.636 87.718,21.47 87.718,22.451C87.718,23.431 87.375,24.269 86.687,24.964ZM84.08,20.564L84.08,20.57C83.537,20.57 83.101,20.748 82.773,21.103C82.445,21.459 82.281,21.912 82.281,22.462C82.281,23.005 82.445,23.459 82.773,23.822C83.101,24.185 83.537,24.367 84.08,24.367C84.63,24.367 85.07,24.187 85.398,23.828C85.726,23.468 85.89,23.013 85.89,22.462C85.89,21.912 85.726,21.457 85.398,21.097C85.07,20.742 84.63,20.564 84.08,20.564Z" style="fill:url(#_Linear15);fill-rule:nonzero;"/>
                    <rect x="89.002" y="16.556" width="1.828" height="9.311" style="fill:url(#_Linear16);fill-rule:nonzero;"/>
                </g>
            </g>
        </g>
    </g>
    <defs>
        <linearGradient id="_Linear1" x1="0" y1="0" x2="1" y2="0" gradientUnits="userSpaceOnUse" gradientTransform="matrix(-36,36,-36,-36,36,0)"><stop offset="0" style="stop-color:rgb(214,101,255);stop-opacity:1"/><stop offset="1" style="stop-color:rgb(76,111,255);stop-opacity:1"/></linearGradient>
        <linearGradient id="_Linear2" x1="0" y1="0" x2="1" y2="0" gradientUnits="userSpaceOnUse" gradientTransform="matrix(63.2423,0,0,63.2423,48.169,16.201)"><stop offset="0" style="stop-color:rgb(113,108,255);stop-opacity:1"/><stop offset="1" style="stop-color:rgb(175,104,255);stop-opacity:1"/></linearGradient>
        <linearGradient id="_Linear3" x1="0" y1="0" x2="1" y2="0" gradientUnits="userSpaceOnUse" gradientTransform="matrix(63.2423,0,0,63.2423,48.169,16.201)"><stop offset="0" style="stop-color:rgb(113,108,255);stop-opacity:1"/><stop offset="1" style="stop-color:rgb(175,104,255);stop-opacity:1"/></linearGradient>
        <linearGradient id="_Linear4" x1="0" y1="0" x2="1" y2="0" gradientUnits="userSpaceOnUse" gradientTransform="matrix(63.2423,0,0,63.2423,48.169,16.201)"><stop offset="0" style="stop-color:rgb(113,108,255);stop-opacity:1"/><stop offset="1" style="stop-color:rgb(175,104,255);stop-opacity:1"/></linearGradient>
        <linearGradient id="_Linear5" x1="0" y1="0" x2="1" y2="0" gradientUnits="userSpaceOnUse" gradientTransform="matrix(63.2423,0,0,63.2423,48.169,16.201)"><stop offset="0" style="stop-color:rgb(113,108,255);stop-opacity:1"/><stop offset="1" style="stop-color:rgb(175,104,255);stop-opacity:1"/></linearGradient>
        <linearGradient id="_Linear6" x1="0" y1="0" x2="1" y2="0" gradientUnits="userSpaceOnUse" gradientTransform="matrix(63.2423,0,0,63.2423,48.169,16.201)"><stop offset="0" style="stop-color:rgb(113,108,255);stop-opacity:1"/><stop offset="1" style="stop-color:rgb(175,104,255);stop-opacity:1"/></linearGradient>
        <linearGradient id="_Linear7" x1="0" y1="0" x2="1" y2="0" gradientUnits="userSpaceOnUse" gradientTransform="matrix(63.2423,0,0,63.2423,48.169,16.201)"><stop offset="0" style="stop-color:rgb(113,108,255);stop-opacity:1"/><stop offset="1" style="stop-color:rgb(175,104,255);stop-opacity:1"/></linearGradient>
        <linearGradient id="_Linear8" x1="0" y1="0" x2="1" y2="0" gradientUnits="userSpaceOnUse" gradientTransform="matrix(63.2423,0,0,63.2423,48.169,16.201)"><stop offset="0" style="stop-color:rgb(113,108,255);stop-opacity:1"/><stop offset="1" style="stop-color:rgb(175,104,255);stop-opacity:1"/></linearGradient>
        <linearGradient id="_Linear9" x1="0" y1="0" x2="1" y2="0" gradientUnits="userSpaceOnUse" gradientTransform="matrix(63.2423,0,0,63.2423,48.169,16.201)"><stop offset="0" style="stop-color:rgb(113,108,255);stop-opacity:1"/><stop offset="1" style="stop-color:rgb(175,104,255);stop-opacity:1"/></linearGradient>
        <linearGradient id="_Linear10" x1="0" y1="0" x2="1" y2="0" gradientUnits="userSpaceOnUse" gradientTransform="matrix(63.2423,0,0,63.2423,48.169,28.4137)"><stop offset="0" style="stop-color:rgb(113,108,255);stop-opacity:1"/><stop offset="1" style="stop-color:rgb(175,104,255);stop-opacity:1"/></linearGradient>
        <linearGradient id="_Linear11" x1="0" y1="0" x2="1" y2="0" gradientUnits="userSpaceOnUse" gradientTransform="matrix(63.2423,0,0,63.2423,48.169,28.4137)"><stop offset="0" style="stop-color:rgb(113,108,255);stop-opacity:1"/><stop offset="1" style="stop-color:rgb(175,104,255);stop-opacity:1"/></linearGradient>
        <linearGradient id="_Linear12" x1="0" y1="0" x2="1" y2="0" gradientUnits="userSpaceOnUse" gradientTransform="matrix(63.2423,0,0,63.2423,48.169,28.4137)"><stop offset="0" style="stop-color:rgb(113,108,255);stop-opacity:1"/><stop offset="1" style="stop-color:rgb(175,104,255);stop-opacity:1"/></linearGradient>
        <linearGradient id="_Linear13" x1="0" y1="0" x2="1" y2="0" gradientUnits="userSpaceOnUse" gradientTransform="matrix(63.2423,0,0,63.2423,48.169,28.4137)"><stop offset="0" style="stop-color:rgb(113,108,255);stop-opacity:1"/><stop offset="1" style="stop-color:rgb(175,104,255);stop-opacity:1"/></linearGradient>
        <linearGradient id="_Linear14" x1="0" y1="0" x2="1" y2="0" gradientUnits="userSpaceOnUse" gradientTransform="matrix(63.2423,0,0,63.2423,48.169,28.4137)"><stop offset="0" style="stop-color:rgb(113,108,255);stop-opacity:1"/><stop offset="1" style="stop-color:rgb(175,104,255);stop-opacity:1"/></linearGradient>
        <linearGradient id="_Linear15" x1="0" y1="0" x2="1" y2="0" gradientUnits="userSpaceOnUse" gradientTransform="matrix(63.2423,0,0,63.2423,48.169,28.4137)"><stop offset="0" style="stop-color:rgb(113,108,255);stop-opacity:1"/><stop offset="1" style="stop-color:rgb(175,104,255);stop-opacity:1"/></linearGradient>
        <linearGradient id="_Linear16" x1="0" y1="0" x2="1" y2="0" gradientUnits="userSpaceOnUse" gradientTransform="matrix(63.2423,0,0,63.2423,48.169,28.4137)"><stop offset="0" style="stop-color:rgb(113,108,255);stop-opacity:1"/><stop offset="1" style="stop-color:rgb(175,104,255);stop-opacity:1"/></linearGradient>
    </defs>
</svg>
