<?xml version="1.0" encoding="UTF-8" standalone="no"?>
<!DOCTYPE svg PUBLIC "-//W3C//DTD SVG 1.1//EN" "http://www.w3.org/Graphics/SVG/1.1/DTD/svg11.dtd">
<svg width="100%" height="100%" viewBox="0 0 125 32" version="1.1" xmlns="http://www.w3.org/2000/svg" xmlns:xlink="http://www.w3.org/1999/xlink" xml:space="preserve" xmlns:serif="http://www.serif.com/" style="fill-rule:evenodd;clip-rule:evenodd;stroke-linejoin:round;stroke-miterlimit:2;">
    <g id="Prancheta2" transform="matrix(1.17707,0,0,1,0,0)">
        <rect x="0" y="0" width="106" height="32" style="fill:none;"/>
        <clipPath id="_clip1">
            <rect x="0" y="0" width="106" height="32"/>
        </clipPath>
        <g clip-path="url(#_clip1)">
            <g id="Prancheta1" transform="matrix(0.849565,0,0,1,0,-2.44332)">
                <rect x="0" y="2.443" width="105.731" height="31.113" style="fill:none;"/>
                <g transform="matrix(1.0233,0,0,1.0233,0.141744,1.02516)">
                    <g transform="matrix(-0.141108,0,0,0.141108,108.659,-99.9882)">
                        <g transform="matrix(-0.216178,-0.976354,-0.976354,0.216178,623.86,816.418)">
                            <path d="M-7.723,-4.074C-8.464,-3.712 -9.224,-3.375 -9.989,-3.052L-7.723,7.186L-0.894,5.674C-2.694,2.115 -4.98,-1.156 -7.723,-4.074" style="fill:rgb(147,206,152);fill-rule:nonzero;"/>
                        </g>
                        <g transform="matrix(0,1,1,0,663.591,826.799)">
                            <path d="M-31.171,1.288L-19.325,1.288C-19.254,-9.27 -11.438,-18.002 -1.288,-19.533L-1.288,-31.171C-17.113,-28.093 -29.396,-14.959 -31.171,1.288" style="fill:rgb(147,206,152);fill-rule:nonzero;"/>
                        </g>
                        <g transform="matrix(1,0,0,1,664.879,825.511)">
                            <path d="M0,-14.673L0,0L-17.429,0C-15.925,-8.288 -8.703,-14.609 0,-14.673" style="fill:rgb(147,206,152);fill-rule:nonzero;"/>
                        </g>
                        <g transform="matrix(1,0,0,1,633.544,813.05)">
                            <path d="M0,-10.515L-10.386,3.363C-11.902,2.834 -13.456,2.382 -15.03,2.01L-15.03,-10.049L-2.176,-13.878C-1.653,-12.626 -0.909,-11.495 0,-10.515" style="fill:rgb(253,187,76);fill-rule:nonzero;"/>
                        </g>
                        <g transform="matrix(1,0,0,1,631.633,791.269)">
                            <path d="M0,-1.352C-0.716,0.136 -1.131,1.797 -1.131,3.558C-1.131,3.923 -1.109,4.281 -1.074,4.631L-13.119,8.224L-13.119,-9.576L0,-1.352Z" style="fill:rgb(253,187,76);fill-rule:nonzero;"/>
                        </g>
                        <g transform="matrix(-0.847239,-0.531211,-0.531211,0.847239,630.747,767.738)">
                            <path d="M-12.664,14.96L3.49,14.96C1.22,8.661 -1.887,2.744 -5.724,-2.645L-15.453,9.385C-13.996,10.966 -13.048,12.904 -12.664,14.96" style="fill:rgb(253,187,76);fill-rule:nonzero;"/>
                        </g>
                        <g transform="matrix(-0.700386,-0.713765,-0.713765,0.700386,623.595,812.383)">
                            <path d="M-5.751,-15.404C-6.121,-10.007 -7.568,-4.676 -10.075,0.25C-8.606,0.663 -7.163,1.153 -5.751,1.712L-3.28,-14.4C-4.134,-14.634 -4.961,-14.967 -5.751,-15.404" style="fill:rgb(253,187,76);fill-rule:nonzero;"/>
                        </g>
                        <g transform="matrix(0.933721,-0.358001,-0.358001,-0.933721,651.096,785.671)">
                            <path d="M-3.559,2.421C-4.639,3.602 -5.978,4.567 -7.538,5.218L-3.559,21.055C4.187,20.884 11.907,19.464 19.307,16.835L-3.559,2.421Z" style="fill:rgb(253,187,76);fill-rule:nonzero;"/>
                        </g>
                        <g transform="matrix(-0.958338,0.285635,0.285635,0.958338,647.754,772.646)">
                            <path d="M-12.689,17.382L0.867,17.382C1.107,16.161 1.553,14.996 2.169,13.932L-18.231,-1.213L-12.689,17.382Z" style="fill:rgb(253,187,76);fill-rule:nonzero;"/>
                        </g>
                        <g transform="matrix(1,0,0,1,664.879,795.227)">
                            <path d="M0,-6.041L0,-2.984C-4.108,-2.569 -8.038,-1.546 -11.702,0C-11.695,-0.129 -11.681,-0.265 -11.681,-0.401C-11.681,-1.116 -11.76,-1.818 -11.888,-2.498L0,-6.041Z" style="fill:rgb(253,187,76);fill-rule:nonzero;"/>
                        </g>
                        <g transform="matrix(1,0,0,1,663.548,735.077)">
                            <path d="M0,7.308L-1.582,8.138L-1.281,6.378L-1.023,4.896L-2.104,3.844L-3.386,2.591L-1.618,2.341L-0.123,2.12L0.543,0.774L1.331,-0.83L2.125,0.774L2.791,2.12L4.279,2.341L6.047,2.591L4.766,3.844L3.686,4.896L3.943,6.378L4.244,8.138L2.662,7.308L1.331,6.607L0,7.308Z" style="fill:rgb(253,187,76);fill-rule:nonzero;"/>
                        </g>
                        <g transform="matrix(1,0,0,1,664.879,866.2)">
                            <path d="M0,21.415L0,0L39.05,0C30.798,12.861 16.383,21.415 0,21.415" style="fill:rgb(73,197,231);fill-rule:nonzero;"/>
                        </g>
                        <g transform="matrix(-1,0,0,1,670.184,843.067)">
                            <path d="M-35.706,19.769L5.305,19.769L5.305,0L-41.011,0C-40.738,7.115 -38.85,13.822 -35.706,19.769" style="fill:rgb(73,197,231);fill-rule:nonzero;"/>
                        </g>
                        <g transform="matrix(-1,0,0,1,1376.12,474.672)">
                            <rect x="664.879" y="350.839" width="46.365" height="14.2" style="fill:rgb(73,197,231);"/>
                        </g>
                        <g transform="matrix(1,0,0,1,588.702,836.475)">
                            <path d="M0,-8.288C0.029,-8.016 0.051,-7.744 0.051,-7.472C0.051,-3.336 -3.32,0.035 -7.457,0.035C-7.694,0.035 -7.923,0.022 -8.158,0C-8.188,-0.271 -8.202,-0.544 -8.202,-0.815C-8.202,-4.96 -4.837,-8.324 -0.7,-8.324C-0.465,-8.324 -0.235,-8.309 0,-8.288M-21.156,-8.324C-17.02,-8.324 -13.648,-4.96 -13.648,-0.815C-13.648,-0.544 -13.67,-0.271 -13.698,0C-13.935,0.022 -14.164,0.035 -14.399,0.035C-16.404,0.035 -18.286,-0.744 -19.704,-2.161C-21.121,-3.579 -21.908,-5.469 -21.908,-7.472C-21.908,-7.744 -21.887,-8.016 -21.857,-8.288C-21.621,-8.309 -21.393,-8.324 -21.156,-8.324M-7.457,3.393C-1.453,3.393 3.407,-1.468 3.407,-7.472C3.407,-8.747 3.179,-9.971 2.771,-11.108C1.683,-11.48 0.517,-11.688 -0.7,-11.688C-5.425,-11.688 -9.434,-8.667 -10.929,-4.459C-12.425,-8.667 -16.433,-11.688 -21.156,-11.688C-22.374,-11.688 -23.54,-11.473 -24.628,-11.108C-25.036,-9.971 -25.265,-8.747 -25.265,-7.472C-25.265,-1.468 -20.397,3.4 -14.399,3.393C-13.184,3.393 -12.017,3.185 -10.929,2.82C-9.833,3.185 -8.675,3.393 -7.457,3.393" style="fill:rgb(0,40,48);fill-rule:nonzero;"/>
                        </g>
                        <g transform="matrix(1,0,0,1,569.428,853.947)">
                            <path d="M0,1.188C-0.071,0.923 -0.128,0.658 -0.172,0.386C0.051,0.3 0.271,0.229 0.494,0.165C1.153,-0.014 1.825,-0.1 2.491,-0.1C5.854,-0.1 8.833,2.168 9.72,5.411C9.799,5.675 9.855,5.948 9.892,6.213C9.678,6.298 9.455,6.37 9.226,6.434C8.575,6.614 7.902,6.707 7.229,6.707C3.865,6.707 0.895,4.438 0,1.188M14.974,3.972C13.878,-0.022 16.226,-4.159 20.22,-5.261C20.441,-5.319 20.671,-5.368 20.907,-5.412C21.008,-5.154 21.093,-4.895 21.165,-4.63C22.267,-0.644 19.912,3.493 15.925,4.595C15.696,4.652 15.468,4.709 15.238,4.746C15.131,4.488 15.046,4.23 14.974,3.972M-0.394,-3.071C-1.566,-2.749 -2.634,-2.241 -3.593,-1.596C-3.679,-0.386 -3.579,0.852 -3.242,2.084C-1.911,6.899 2.462,10.07 7.229,10.07C8.188,10.07 9.154,9.942 10.121,9.676C11.295,9.355 12.36,8.846 13.313,8.202C13.527,8.209 13.742,8.216 13.95,8.216C14.902,8.216 15.861,8.095 16.812,7.837C22.604,6.241 26.003,0.257 24.406,-5.526C24.07,-6.756 23.519,-7.873 22.833,-8.861C22.617,-8.875 22.402,-8.882 22.188,-8.882C21.243,-8.882 20.284,-8.76 19.325,-8.503C14.78,-7.25 11.717,-3.286 11.38,1.167C9.361,-1.71 6.041,-3.464 2.491,-3.464C1.539,-3.464 0.565,-3.335 -0.394,-3.071" style="fill:rgb(0,40,48);fill-rule:nonzero;"/>
                        </g>
                        <g transform="matrix(1,0,0,1,584.845,810.409)">
                            <path d="M0,-2.813C1.761,-2.383 2.999,-0.823 2.999,0.995C2.999,2.655 1.954,4.072 0.486,4.637C0.565,4.351 0.615,4.058 0.615,3.757C0.615,3.356 0.565,2.97 0.479,2.591C-0.007,2.448 -0.522,2.34 -1.059,2.34C-2.14,2.34 -3.135,2.669 -3.986,3.213C-4.194,2.225 -4.674,1.295 -5.439,0.529C-5.719,0.25 -6.033,0.029 -6.356,-0.172C-6.685,0.029 -7,0.25 -7.279,0.529C-8.045,1.295 -8.517,2.225 -8.731,3.213C-9.576,2.669 -10.579,2.34 -11.659,2.34C-12.196,2.34 -12.704,2.448 -13.198,2.591C-13.283,2.97 -13.334,3.356 -13.334,3.757C-13.334,4.058 -13.283,4.351 -13.205,4.637C-14.665,4.072 -15.71,2.655 -15.71,0.995C-15.71,-0.823 -14.479,-2.383 -12.718,-2.813L-10.614,-3.322L-10.206,-5.455C-9.855,-7.301 -8.238,-8.639 -6.356,-8.639C-4.479,-8.639 -2.862,-7.301 -2.513,-5.455L-2.104,-3.322L0,-2.813M-0.931,8.274C3.1,8.274 6.355,5.017 6.355,0.995C6.355,-2.441 3.987,-5.304 0.795,-6.077C0.158,-9.448 -2.806,-12.003 -6.356,-12.003C-9.912,-12.003 -12.868,-9.448 -13.513,-6.077C-16.705,-5.304 -19.074,-2.441 -19.074,0.995C-19.074,5.017 -15.81,8.274 -11.788,8.274C-11.215,8.274 -10.664,8.202 -10.128,8.081C-8.925,8.746 -7.565,9.161 -6.356,9.19C-5.153,9.161 -3.794,8.746 -2.591,8.081C-2.054,8.202 -1.503,8.274 -0.931,8.274" style="fill:rgb(0,40,48);fill-rule:nonzero;"/>
                        </g>
                        <g transform="matrix(1,0,0,1,578.896,870.925)">
                            <path d="M0,8.71C-0.136,8.481 -0.264,8.237 -0.379,7.986C-0.186,7.844 0.008,7.715 0.208,7.593C1.368,6.906 2.691,6.541 4.037,6.541C6.714,6.541 9.126,7.908 10.494,10.206C10.637,10.441 10.766,10.685 10.873,10.936C10.687,11.071 10.494,11.201 10.285,11.322C9.126,12.017 7.803,12.381 6.464,12.381C3.78,12.381 1.368,11.007 0,8.71M15.175,7.421C13.056,3.864 14.23,-0.752 17.787,-2.863C17.987,-2.985 18.194,-3.093 18.409,-3.193C18.573,-2.978 18.725,-2.749 18.867,-2.513C20.979,1.037 19.812,5.653 16.255,7.773C16.055,7.894 15.847,8.001 15.632,8.101C15.468,7.88 15.317,7.658 15.175,7.421M-1.51,4.709C-2.554,5.331 -3.449,6.105 -4.2,6.979C-3.964,8.166 -3.542,9.333 -2.884,10.435C-0.852,13.849 2.756,15.746 6.464,15.746C8.353,15.746 10.265,15.252 12.011,14.214C13.056,13.591 13.95,12.818 14.694,11.938C15.826,11.701 16.928,11.279 17.973,10.657C23.134,7.593 24.823,0.923 21.752,-4.238C21.101,-5.333 20.278,-6.264 19.347,-7.036C18.216,-6.793 17.114,-6.378 16.069,-5.755C12.004,-3.336 10.106,1.316 10.973,5.703C9.012,4.072 6.55,3.177 4.037,3.177C2.147,3.177 0.229,3.671 -1.51,4.709" style="fill:rgb(0,40,48);fill-rule:nonzero;"/>
                        </g>
                        <g transform="matrix(1,0,0,1,594.528,885.89)">
                            <path d="M0,14.859C-0.2,14.673 -0.386,14.472 -0.558,14.257C-0.415,14.072 -0.257,13.9 -0.1,13.728C1.332,12.239 3.25,11.423 5.318,11.423C7.266,11.423 9.112,12.168 10.515,13.512C10.708,13.707 10.894,13.907 11.073,14.114C10.931,14.3 10.772,14.479 10.608,14.644C9.184,16.132 7.259,16.956 5.196,16.956C3.25,16.956 1.403,16.212 0,14.859M14.286,9.59C12.841,8.203 12.025,6.335 11.982,4.331C11.946,2.326 12.684,0.422 14.072,-1.024C14.236,-1.188 14.408,-1.353 14.587,-1.503C14.802,-1.338 15.01,-1.16 15.211,-0.973C16.655,0.416 17.473,2.284 17.515,4.288C17.551,6.298 16.813,8.195 15.425,9.641C15.261,9.806 15.088,9.97 14.909,10.121C14.694,9.956 14.487,9.777 14.286,9.59M5.318,8.059C2.463,8.059 -0.386,9.175 -2.519,11.402C-3.363,12.275 -4.021,13.263 -4.509,14.3C-3.972,15.388 -3.249,16.397 -2.332,17.285C-0.221,19.311 2.491,20.313 5.196,20.313C8.053,20.313 10.901,19.196 13.034,16.977C13.879,16.097 14.537,15.117 15.023,14.072C16.047,13.542 17.007,12.847 17.844,11.966C22.002,7.644 21.866,0.765 17.536,-3.392C16.612,-4.28 15.575,-4.96 14.474,-5.454C13.449,-4.924 12.49,-4.23 11.652,-3.349C8.382,0.049 7.78,5.032 9.777,9.033C8.36,8.388 6.836,8.059 5.318,8.059" style="fill:rgb(0,40,48);fill-rule:nonzero;"/>
                        </g>
                        <g transform="matrix(1,0,0,1,615.199,897.807)">
                            <path d="M0,19.153C-0.243,19.024 -0.472,18.882 -0.701,18.723C-0.608,18.502 -0.508,18.295 -0.394,18.087C0.916,15.668 3.45,14.157 6.213,14.157C7.466,14.157 8.668,14.466 9.777,15.066C10.021,15.195 10.25,15.345 10.479,15.503C10.386,15.717 10.285,15.925 10.171,16.132C8.861,18.559 6.327,20.062 3.564,20.062C2.312,20.062 1.109,19.755 0,19.153M12.376,10.278C8.739,8.309 7.387,3.744 9.355,0.107C9.469,-0.1 9.591,-0.301 9.72,-0.494C9.978,-0.394 10.222,-0.279 10.465,-0.143C12.225,0.809 13.513,2.398 14.078,4.316C14.651,6.241 14.437,8.267 13.485,10.027C13.37,10.234 13.249,10.435 13.119,10.629C12.862,10.529 12.619,10.415 12.376,10.278M6.213,10.794C2.355,10.794 -1.381,12.854 -3.35,16.483C-3.93,17.557 -4.301,18.68 -4.502,19.812C-3.692,20.714 -2.728,21.501 -1.603,22.109C0.043,23.004 1.817,23.426 3.564,23.426C7.422,23.426 11.158,21.365 13.127,17.736C13.707,16.67 14.078,15.546 14.279,14.408C15.124,13.628 15.861,12.698 16.44,11.631C19.297,6.356 17.342,-0.236 12.067,-3.099C10.943,-3.707 9.756,-4.086 8.567,-4.273C7.723,-3.493 6.979,-2.562 6.398,-1.496C4.152,2.656 4.896,7.623 7.881,10.943C7.322,10.858 6.771,10.794 6.213,10.794" style="fill:rgb(0,40,48);fill-rule:nonzero;"/>
                        </g>
                        <g transform="matrix(1,0,0,1,703.929,784.42)">
                            <path d="M0,81.78C-8.252,94.641 -22.667,103.195 -39.05,103.195L-39.05,81.78L0,81.78ZM7.266,58.647C6.993,65.761 5.104,72.468 1.961,78.416L-39.05,78.416L-39.05,58.647L7.266,58.647M7.315,55.291L-39.05,55.291L-39.05,41.091L-56.479,41.091C-54.975,32.802 -47.753,26.482 -39.05,26.418L-39.05,41.091L7.315,41.091L7.315,55.291ZM-3.649,28.551L-5.683,30.533L-5.203,33.34L-7.715,32.015L-10.234,33.34L-9.748,30.533L-11.788,28.551L-8.975,28.142L-7.715,25.594L-6.463,28.142L-3.649,28.551ZM-3.649,13.076L-5.683,15.059L-5.203,17.857L-7.715,16.534L-10.234,17.857L-9.748,15.059L-11.788,13.076L-8.975,12.669L-7.715,10.121L-6.463,12.669L-3.649,13.076ZM-3.649,-2.406L-5.683,-0.422L-5.203,2.384L-7.715,1.059L-10.234,2.384L-9.748,-0.422L-11.788,-2.406L-8.975,-2.813L-7.715,-5.361L-6.463,-2.813L-3.649,-2.406ZM-19.926,28.551L-21.958,30.533L-21.479,33.34L-23.991,32.015L-26.503,33.34L-26.023,30.533L-28.057,28.551L-25.251,28.142L-23.991,25.594L-22.73,28.142L-19.926,28.551ZM-19.926,13.076L-21.958,15.059L-21.479,17.857L-23.991,16.534L-26.503,17.857L-26.023,15.059L-28.057,13.076L-25.251,12.669L-23.991,10.121L-22.73,12.669L-19.926,13.076ZM-19.926,-2.406L-21.958,-0.422L-21.479,2.384L-23.991,1.059L-26.503,2.384L-26.023,-0.422L-28.057,-2.406L-25.251,-2.813L-23.991,-5.361L-22.73,-2.813L-19.926,-2.406ZM-39.05,23.053C-49.607,23.126 -58.34,30.941 -59.871,41.091L-71.509,41.091C-68.431,25.265 -55.297,12.983 -39.05,11.208L-39.05,23.053ZM-39.05,7.823C-43.158,8.238 -47.088,9.261 -50.752,10.807C-50.745,10.678 -50.73,10.543 -50.73,10.407C-50.73,9.691 -50.81,8.99 -50.938,8.309L-39.05,4.767L-39.05,7.823ZM-39.05,1.259L-52.041,5.132C-52.62,4.03 -53.38,3.042 -54.273,2.197L-39.05,-18.144L-39.05,1.259ZM-63.693,-17.135C-56.399,-19.747 -48.684,-21.187 -40.833,-21.379L-57.022,0.264C-58.454,-0.45 -60.05,-0.873 -61.739,-0.923L-63.693,-17.135M-65.074,-0.523C-67.149,0.043 -68.982,1.18 -70.399,2.719L-84.085,-5.862C-78.816,-9.992 -73.04,-13.356 -66.928,-15.882L-65.074,-0.523ZM-85.416,-2.727L-72.296,5.497C-73.012,6.985 -73.428,8.646 -73.428,10.407C-73.428,10.772 -73.406,11.13 -73.37,11.481L-85.416,15.073L-85.416,-2.727ZM-85.416,18.58L-72.562,14.752C-72.038,16.004 -71.294,17.134 -70.385,18.115L-80.77,31.994C-82.287,31.464 -83.84,31.012 -85.416,30.641L-85.416,18.58ZM-85.416,34.097C-81.551,35.086 -77.864,36.61 -74.422,38.657C-74.615,39.459 -74.779,40.274 -74.93,41.091L-85.416,41.091L-85.416,34.097ZM-62.462,18.373C-66.685,18.173 -70.063,14.687 -70.063,10.407C-70.063,6.005 -66.484,2.426 -62.082,2.426C-57.674,2.426 -54.095,6.005 -54.095,10.407C-54.095,11.158 -54.224,11.888 -54.431,12.597C-57.337,14.193 -60.035,16.14 -62.462,18.373M-67.758,20.219C-66.992,20.664 -66.176,21.021 -65.311,21.278C-68.903,25.323 -71.694,30.09 -73.455,35.329C-74.779,34.57 -76.14,33.884 -77.527,33.267L-67.758,20.219M-77.428,60.695L-64.021,60.695L-64.021,48.212L-60.658,48.212L-60.658,60.695L-47.253,60.695L-47.253,64.058L-60.658,64.058L-60.658,86.798L-64.021,86.798L-64.021,64.058L-77.428,64.058L-77.428,60.695ZM-39.05,107.676C-10.964,107.676 11.796,84.915 11.796,56.83L11.796,-6.9C-2.783,-19.569 -20.921,-25.896 -39.05,-25.896C-57.179,-25.896 -75.31,-19.569 -89.896,-6.9L-89.896,56.83C-89.896,84.915 -67.129,107.676 -39.05,107.676" style="fill:rgb(0,40,48);fill-rule:nonzero;"/>
                        </g>
                        <g transform="matrix(1,0,0,1,639.427,905.737)">
                            <path d="M0,21.366C-0.265,21.308 -0.529,21.229 -0.787,21.137C-0.758,20.907 -0.716,20.672 -0.666,20.45C0.136,17.028 3.135,14.637 6.635,14.637C7.207,14.637 7.787,14.71 8.346,14.838C8.61,14.895 8.876,14.974 9.133,15.067C9.104,15.304 9.062,15.532 9.012,15.762C8.217,19.176 5.211,21.566 1.711,21.566C1.138,21.566 0.565,21.502 0,21.366M10.386,9.67C10.113,9.641 9.849,9.592 9.584,9.534C5.547,8.596 3.035,4.553 3.973,0.523C4.022,0.295 4.088,0.072 4.166,-0.157C4.437,-0.121 4.702,-0.078 4.975,-0.013C6.922,0.437 8.582,1.626 9.641,3.329C10.7,5.032 11.037,7.044 10.579,8.998C10.528,9.227 10.465,9.449 10.386,9.67M5.411,11.359C0.974,11.868 -2.87,15.089 -3.936,19.683C-4.216,20.872 -4.272,22.053 -4.158,23.198C-3.142,23.849 -2.003,24.357 -0.766,24.643C0.064,24.838 0.895,24.93 1.711,24.93C6.649,24.93 11.115,21.538 12.282,16.52C12.562,15.339 12.619,14.158 12.504,13.006C13.112,12.025 13.577,10.945 13.856,9.757C15.217,3.909 11.581,-1.932 5.733,-3.292C4.924,-3.478 4.108,-3.564 3.314,-3.564C2.885,-3.564 2.463,-3.542 2.047,-3.491C1.438,-2.511 0.974,-1.423 0.694,-0.236C-0.372,4.359 1.654,8.94 5.411,11.359" style="fill:rgb(0,40,48);fill-rule:nonzero;"/>
                        </g>
                        <g transform="matrix(1,0,0,1,669.595,738.555)">
                            <path d="M0,-0.887L-1.281,0.366L-2.361,1.418L-2.104,2.9L-1.803,4.66L-3.385,3.83L-4.716,3.129L-6.048,3.83L-7.629,4.66L-7.329,2.9L-7.07,1.418L-8.151,0.366L-9.433,-0.887L-7.665,-1.137L-6.169,-1.359L-5.504,-2.705L-4.716,-4.308L-3.922,-2.705L-3.256,-1.359L-1.768,-1.137L0,-0.887ZM0.717,2.413L6.148,-2.883L-1.359,-3.972L-4.716,-10.779L-8.072,-3.972L-15.581,-2.883L-10.148,2.413L-11.43,9.892L-4.716,6.363L1.998,9.892L0.717,2.413Z" style="fill:rgb(0,40,48);fill-rule:nonzero;"/>
                        </g>
                        <g transform="matrix(1,0,0,1,664.879,916.753)">
                            <path d="M0,4.137C-1.146,4.137 -2.068,3.206 -2.068,2.069C-2.068,0.923 -1.146,-0.008 0,-0.008C1.145,-0.008 2.068,0.923 2.068,2.069C2.068,3.206 1.145,4.137 0,4.137M0,-3.364C-3,-3.364 -5.434,-0.938 -5.434,2.069C-5.434,5.068 -3,7.501 0,7.501C2.999,7.501 5.433,5.068 5.433,2.069C5.433,-0.938 2.999,-3.364 0,-3.364" style="fill:rgb(0,40,48);fill-rule:nonzero;"/>
                        </g>
                        <g transform="matrix(1,0,0,1,679.752,918.105)">
                            <path d="M0,-3.371C-0.458,-5.325 -0.122,-7.337 0.937,-9.04C1.997,-10.743 3.657,-11.932 5.604,-12.382C5.876,-12.447 6.141,-12.49 6.413,-12.526C6.491,-12.297 6.556,-12.074 6.605,-11.846C7.543,-7.816 5.031,-3.772 0.994,-2.835C0.729,-2.777 0.465,-2.727 0.192,-2.698C0.114,-2.921 0.05,-3.142 0,-3.371M1.566,3.393C1.517,3.163 1.474,2.934 1.445,2.698C1.702,2.606 1.968,2.526 2.232,2.469C2.792,2.341 3.371,2.269 3.943,2.269C7.443,2.269 10.442,4.659 11.243,8.081C11.294,8.302 11.337,8.538 11.366,8.768C11.107,8.86 10.844,8.94 10.579,8.997C10.013,9.133 9.44,9.197 8.867,9.197C5.368,9.197 2.361,6.807 1.566,3.393M4.845,-15.661C-1.002,-14.301 -4.639,-8.46 -3.278,-2.612C-2.999,-1.424 -2.534,-0.344 -1.933,0.637C-2.04,1.789 -1.982,2.97 -1.704,4.151C-0.537,9.169 3.929,12.562 8.867,12.562C9.684,12.562 10.514,12.468 11.344,12.275C12.582,11.988 13.721,11.481 14.736,10.829C14.852,9.684 14.787,8.503 14.515,7.315C13.448,2.72 9.604,-0.501 5.167,-1.01C8.925,-3.429 10.951,-8.01 9.884,-12.604C9.604,-13.792 9.14,-14.88 8.531,-15.86C8.116,-15.911 7.694,-15.933 7.264,-15.933C6.47,-15.933 5.654,-15.847 4.845,-15.661" style="fill:rgb(0,40,48);fill-rule:nonzero;"/>
                        </g>
                        <g transform="matrix(1,0,0,1,701.073,906.933)">
                            <path d="M0,0.901C-0.952,-0.859 -1.166,-2.885 -0.594,-4.81C-0.028,-6.728 1.26,-8.318 3.021,-9.269C3.264,-9.405 3.507,-9.519 3.765,-9.62C3.894,-9.426 4.016,-9.226 4.13,-9.019C6.098,-5.382 4.745,-0.817 1.109,1.152C0.866,1.289 0.623,1.403 0.365,1.503C0.236,1.309 0.115,1.109 0,0.901M3.314,7.006C3.199,6.798 3.099,6.591 3.006,6.378C3.235,6.219 3.465,6.069 3.708,5.94C4.816,5.339 6.02,5.031 7.272,5.031C10.035,5.031 12.568,6.542 13.878,8.961C13.992,9.169 14.093,9.377 14.186,9.597C13.957,9.755 13.729,9.898 13.484,10.027C12.375,10.629 11.173,10.936 9.921,10.936C7.157,10.936 4.623,9.433 3.314,7.006M1.417,-12.225C-3.857,-9.362 -5.812,-2.77 -2.955,2.505C-2.376,3.572 -1.639,4.502 -0.794,5.282C-0.594,6.42 -0.222,7.544 0.358,8.61C2.326,12.239 6.062,14.3 9.921,14.3C11.667,14.3 13.441,13.878 15.088,12.983C16.212,12.376 17.178,11.588 17.987,10.686C17.786,9.554 17.414,8.431 16.835,7.358C14.865,3.728 11.13,1.668 7.272,1.668C6.714,1.668 6.163,1.732 5.604,1.817C8.589,-1.503 9.333,-6.47 7.086,-10.622C6.506,-11.688 5.762,-12.62 4.917,-13.399C3.729,-13.212 2.541,-12.833 1.417,-12.225" style="fill:rgb(0,40,48);fill-rule:nonzero;"/>
                        </g>
                        <g transform="matrix(1,0,0,1,719.805,891.107)">
                            <path d="M0,4.424C-1.389,2.979 -2.126,1.081 -2.09,-0.93C-2.048,-2.934 -1.232,-4.803 0.214,-6.19C0.415,-6.376 0.622,-6.555 0.837,-6.721C1.016,-6.57 1.187,-6.405 1.352,-6.24C2.74,-4.795 3.478,-2.891 3.442,-0.887C3.399,1.116 2.583,2.985 1.138,4.374C0.937,4.56 0.729,4.738 0.515,4.903C0.336,4.753 0.164,4.588 0,4.424M4.816,9.427C4.651,9.262 4.494,9.083 4.351,8.898C4.53,8.69 4.717,8.489 4.91,8.296C6.312,6.95 8.158,6.206 10.105,6.206C12.174,6.206 14.093,7.022 15.524,8.511C15.681,8.683 15.839,8.854 15.981,9.04C15.81,9.255 15.624,9.455 15.424,9.641C14.021,10.994 12.174,11.738 10.227,11.738C8.166,11.738 6.241,10.916 4.816,9.427M-2.111,-8.61C-6.441,-4.451 -6.578,2.427 -2.42,6.75C-1.582,7.63 -0.623,8.324 0.4,8.854C0.887,9.9 1.546,10.88 2.39,11.76C4.522,13.979 7.372,15.095 10.227,15.095C12.933,15.095 15.646,14.093 17.757,12.068C18.673,11.181 19.396,10.171 19.933,9.083C19.446,8.045 18.787,7.057 17.942,6.185C15.81,3.958 12.962,2.842 10.105,2.842C8.589,2.842 7.064,3.171 5.647,3.815C7.644,-0.185 7.042,-5.167 3.771,-8.567C2.934,-9.447 1.975,-10.141 0.951,-10.671C-0.15,-10.178 -1.188,-9.497 -2.111,-8.61" style="fill:rgb(0,40,48);fill-rule:nonzero;"/>
                        </g>
                        <g transform="matrix(1,0,0,1,740.575,868.312)">
                            <path d="M0,13.935C-0.208,13.813 -0.4,13.684 -0.587,13.548C-0.479,13.298 -0.351,13.054 -0.208,12.819C1.159,10.521 3.571,9.154 6.249,9.154C7.594,9.154 8.918,9.519 10.077,10.206C10.277,10.328 10.472,10.456 10.664,10.599C10.55,10.85 10.42,11.093 10.284,11.322C8.918,13.621 6.498,14.995 3.822,14.995C2.483,14.995 1.159,14.629 0,13.935M-7.501,-0.252C-3.944,1.86 -2.771,6.477 -4.89,10.035C-5.031,10.27 -5.183,10.492 -5.347,10.714C-5.562,10.614 -5.77,10.506 -5.97,10.385C-9.526,8.266 -10.693,3.65 -8.582,0.099C-8.438,-0.136 -8.289,-0.366 -8.124,-0.581C-7.909,-0.48 -7.701,-0.373 -7.501,-0.252M-4.409,14.55C-3.664,15.431 -2.771,16.204 -1.726,16.827C0.021,17.865 1.933,18.358 3.822,18.358C7.529,18.358 11.137,16.461 13.169,13.047C13.828,11.945 14.25,10.779 14.486,9.59C13.735,8.717 12.84,7.944 11.795,7.322C10.057,6.284 8.138,5.79 6.249,5.79C3.736,5.79 1.273,6.684 -0.687,8.317C0.179,3.929 -1.719,-0.723 -5.783,-3.142C-6.828,-3.765 -7.931,-4.18 -9.062,-4.423C-9.992,-3.651 -10.815,-2.72 -11.467,-1.625C-14.537,3.535 -12.848,10.206 -7.687,13.269C-6.643,13.892 -5.54,14.315 -4.409,14.55" style="fill:rgb(0,40,48);fill-rule:nonzero;"/>
                        </g>
                        <g transform="matrix(1,0,0,1,760.329,853.947)">
                            <path d="M0,1.188C-0.895,4.438 -3.864,6.707 -7.229,6.707C-7.901,6.707 -8.574,6.614 -9.226,6.434C-9.455,6.37 -9.677,6.298 -9.892,6.213C-9.855,5.948 -9.798,5.675 -9.72,5.411C-8.832,2.168 -5.854,-0.1 -2.49,-0.1C-1.825,-0.1 -1.152,-0.014 -0.493,0.165C-0.272,0.229 -0.05,0.3 0.172,0.386C0.129,0.658 0.072,0.923 0,1.188M-20.22,-5.261C-16.226,-4.159 -13.877,-0.022 -14.973,3.972C-15.045,4.23 -15.131,4.488 -15.238,4.746C-15.467,4.709 -15.696,4.652 -15.925,4.595C-19.911,3.493 -22.266,-0.644 -21.164,-4.63C-21.093,-4.895 -21.007,-5.154 -20.906,-5.412C-20.67,-5.368 -20.44,-5.319 -20.22,-5.261M-10.12,9.676C-9.154,9.942 -8.188,10.07 -7.229,10.07C-2.463,10.07 1.911,6.899 3.243,2.084C3.579,0.852 3.68,-0.386 3.593,-1.596C2.634,-2.241 1.567,-2.749 0.395,-3.071C-0.572,-3.335 -1.539,-3.464 -2.49,-3.464C-6.041,-3.464 -9.361,-1.71 -11.38,1.167C-11.717,-3.286 -14.779,-7.25 -19.324,-8.503C-20.284,-8.76 -21.243,-8.882 -22.187,-8.882C-22.402,-8.882 -22.617,-8.875 -22.832,-8.861C-23.519,-7.873 -24.07,-6.756 -24.406,-5.526C-26.002,0.257 -22.603,6.241 -16.812,7.837C-15.86,8.095 -14.901,8.216 -13.957,8.216C-13.741,8.216 -13.527,8.209 -13.313,8.202C-12.36,8.846 -11.294,9.355 -10.12,9.676" style="fill:rgb(0,40,48);fill-rule:nonzero;"/>
                        </g>
                        <g transform="matrix(1,0,0,1,762.913,836.468)">
                            <path d="M0,-8.281C0.028,-8.009 0.05,-7.737 0.05,-7.465C0.05,-3.321 -3.32,0.042 -7.458,0.042C-7.694,0.042 -7.923,0.029 -8.159,0.007C-8.188,-0.264 -8.21,-0.537 -8.21,-0.808C-8.21,-4.946 -4.838,-8.317 -0.701,-8.317C-0.466,-8.317 -0.236,-8.302 0,-8.281M-21.157,-8.317C-17.021,-8.317 -13.656,-4.953 -13.656,-0.808C-13.656,-0.537 -13.671,-0.264 -13.699,0.007C-13.935,0.029 -14.164,0.042 -14.4,0.042C-18.537,0.042 -21.909,-3.329 -21.909,-7.465C-21.909,-7.737 -21.887,-8.009 -21.858,-8.281C-21.623,-8.302 -21.394,-8.317 -21.157,-8.317M-7.458,3.4C-1.46,3.4 3.407,-1.461 3.407,-7.465C3.407,-8.74 3.178,-9.964 2.77,-11.101C1.682,-11.466 0.515,-11.681 -0.701,-11.681C-5.426,-11.681 -9.434,-8.66 -10.93,-4.452C-11.673,-6.556 -13.055,-8.36 -14.83,-9.648C-16.612,-10.922 -18.795,-11.681 -21.157,-11.681C-22.374,-11.681 -23.541,-11.473 -24.629,-11.101C-25.037,-9.964 -25.265,-8.74 -25.265,-7.465C-25.265,-4.467 -24.049,-1.747 -22.088,0.222C-20.119,2.183 -17.399,3.4 -14.4,3.4C-13.184,3.4 -12.025,3.192 -10.93,2.827C-9.842,3.192 -8.675,3.4 -7.458,3.4" style="fill:rgb(0,40,48);fill-rule:nonzero;"/>
                        </g>
                        <g transform="matrix(1,0,0,1,757.631,810.409)">
                            <path d="M0,-2.813C1.761,-2.383 2.991,-0.823 2.991,0.995C2.991,2.655 1.947,4.072 0.486,4.637C0.565,4.351 0.615,4.058 0.615,3.757C0.615,3.356 0.565,2.97 0.479,2.591C-0.014,2.448 -0.522,2.34 -1.06,2.34C-2.14,2.34 -3.143,2.669 -3.987,3.213C-4.201,2.225 -4.673,1.295 -5.439,0.529C-5.719,0.25 -6.033,0.029 -6.362,-0.172C-6.686,0.029 -7,0.25 -7.279,0.529C-8.045,1.295 -8.524,2.225 -8.731,3.213C-9.584,2.669 -10.579,2.34 -11.659,2.34C-12.196,2.34 -12.711,2.448 -13.197,2.591C-13.284,2.97 -13.334,3.356 -13.334,3.757C-13.334,4.058 -13.284,4.351 -13.205,4.637C-14.673,4.072 -15.718,2.655 -15.718,0.995C-15.718,-0.823 -14.479,-2.383 -12.719,-2.813L-10.614,-3.322L-10.206,-5.455C-9.862,-7.301 -8.238,-8.639 -6.362,-8.639C-4.48,-8.639 -2.863,-7.301 -2.513,-5.455L-2.104,-3.322L0,-2.813M-0.931,8.274C3.092,8.274 6.356,5.017 6.356,0.995C6.356,-2.441 3.979,-5.304 0.795,-6.077C0.15,-9.448 -2.806,-12.003 -6.362,-12.003C-9.913,-12.003 -12.876,-9.448 -13.513,-6.077C-16.705,-5.304 -19.074,-2.441 -19.074,0.995C-19.074,5.017 -15.817,8.274 -11.788,8.274C-11.215,8.274 -10.664,8.202 -10.128,8.081C-8.925,8.746 -7.565,9.161 -6.362,9.19C-5.153,9.161 -3.793,8.746 -2.592,8.081C-2.055,8.202 -1.503,8.274 -0.931,8.274" style="fill:rgb(0,40,48);fill-rule:nonzero;"/>
                        </g>
                        <g transform="matrix(1,0,0,1,566.845,836.474)">
                            <path d="M0,-8.287C0.235,-8.308 0.465,-8.323 0.701,-8.323C4.837,-8.323 8.21,-4.959 8.21,-0.814C8.21,-0.543 8.188,-0.27 8.159,0.001C7.923,0.023 7.694,0.036 7.457,0.036C5.454,0.036 3.571,-0.743 2.154,-2.16C0.737,-3.578 -0.051,-5.468 -0.051,-7.471C-0.051,-7.743 -0.029,-8.015 0,-8.287" style="fill:white;fill-rule:nonzero;"/>
                        </g>
                        <g transform="matrix(1,0,0,1,571.919,860.654)">
                            <path d="M0,-6.807C3.363,-6.807 6.342,-4.538 7.229,-1.296C7.308,-1.032 7.365,-0.759 7.4,-0.495C7.186,-0.409 6.964,-0.337 6.735,-0.273C6.084,-0.093 5.41,0 4.738,0C1.374,0 -1.596,-2.27 -2.491,-5.519C-2.563,-5.784 -2.62,-6.048 -2.663,-6.32C-2.44,-6.407 -2.22,-6.478 -1.997,-6.542C-1.339,-6.721 -0.666,-6.807 0,-6.807" style="fill:white;fill-rule:nonzero;"/>
                        </g>
                        <g transform="matrix(1,0,0,1,585.331,801.77)">
                            <path d="M0,13.277C0.079,12.99 0.129,12.697 0.129,12.396C0.129,11.996 0.079,11.609 -0.007,11.229C-0.493,11.087 -1.009,10.979 -1.545,10.979C-2.627,10.979 -3.621,11.308 -4.473,11.852C-4.681,10.865 -5.16,9.934 -5.926,9.169C-6.205,8.889 -6.52,8.667 -6.842,8.467C-7.171,8.667 -7.486,8.889 -7.765,9.169C-8.531,9.934 -9.003,10.865 -9.218,11.852C-10.063,11.308 -11.064,10.979 -12.146,10.979C-12.682,10.979 -13.19,11.087 -13.685,11.229C-13.77,11.609 -13.82,11.996 -13.82,12.396C-13.82,12.697 -13.77,12.99 -13.691,13.277C-15.151,12.712 -16.196,11.295 -16.196,9.633C-16.196,7.816 -14.966,6.255 -13.204,5.826L-11.101,5.318L-10.692,3.185C-10.341,1.339 -8.724,0 -6.842,0C-4.967,0 -3.349,1.339 -2.999,3.185L-2.591,5.318L-0.486,5.826C1.274,6.255 2.513,7.816 2.513,9.633C2.513,11.295 1.468,12.712 0,13.277" style="fill:white;fill-rule:nonzero;"/>
                        </g>
                        <g transform="matrix(1,0,0,1,582.934,883.307)">
                            <path d="M0,-5.841C2.678,-5.841 5.089,-4.474 6.456,-2.176C6.6,-1.941 6.729,-1.696 6.836,-1.446C6.649,-1.311 6.456,-1.182 6.249,-1.06C5.089,-0.365 3.766,0 2.427,0C-0.257,0 -2.669,-1.374 -4.037,-3.673C-4.173,-3.902 -4.301,-4.145 -4.416,-4.396C-4.223,-4.538 -4.029,-4.667 -3.828,-4.789C-2.669,-5.476 -1.346,-5.841 0,-5.841" style="fill:white;fill-rule:nonzero;"/>
                        </g>
                        <g transform="matrix(1,0,0,1,581.245,828.152)">
                            <path d="M0,8.36C-0.236,8.36 -0.466,8.345 -0.702,8.324C-0.73,8.051 -0.745,7.78 -0.745,7.507C-0.745,3.364 2.619,0 6.757,0C6.992,0 7.222,0.014 7.457,0.036C7.486,0.307 7.508,0.58 7.508,0.851C7.508,4.989 4.137,8.36 0,8.36" style="fill:white;fill-rule:nonzero;"/>
                        </g>
                        <g transform="matrix(1,0,0,1,585.353,848.685)">
                            <path d="M0,9.857C-0.229,9.914 -0.458,9.971 -0.687,10.007C-0.795,9.749 -0.881,9.492 -0.952,9.234C-2.048,5.241 0.301,1.103 4.294,0.001C4.516,-0.057 4.745,-0.106 4.981,-0.15C5.081,0.108 5.167,0.367 5.239,0.631C6.341,4.618 3.986,8.754 0,9.857" style="fill:white;fill-rule:nonzero;"/>
                        </g>
                        <g transform="matrix(1,0,0,1,596.684,878.695)">
                            <path d="M0,-10.634C0.2,-10.756 0.407,-10.863 0.622,-10.964C0.786,-10.748 0.937,-10.52 1.08,-10.284C3.192,-6.734 2.025,-2.117 -1.532,0.002C-1.732,0.123 -1.94,0.23 -2.155,0.33C-2.319,0.109 -2.47,-0.113 -2.612,-0.35C-4.731,-3.906 -3.557,-8.523 0,-10.634" style="fill:white;fill-rule:nonzero;"/>
                        </g>
                        <g transform="matrix(1,0,0,1,599.847,902.845)">
                            <path d="M0,-5.532C1.947,-5.532 3.794,-4.788 5.196,-3.442C5.39,-3.249 5.575,-3.049 5.755,-2.842C5.612,-2.655 5.454,-2.475 5.29,-2.311C3.865,-0.823 1.94,0 -0.122,0C-2.068,0 -3.915,-0.744 -5.318,-2.096C-5.519,-2.282 -5.704,-2.483 -5.876,-2.698C-5.733,-2.884 -5.575,-3.055 -5.418,-3.227C-3.986,-4.717 -2.068,-5.532 0,-5.532" style="fill:white;fill-rule:nonzero;"/>
                        </g>
                        <g transform="matrix(1,0,0,1,609.115,896.011)">
                            <path d="M0,-11.624C0.215,-11.459 0.423,-11.28 0.623,-11.094C2.068,-9.705 2.885,-7.838 2.928,-5.834C2.964,-3.822 2.227,-1.926 0.838,-0.48C0.673,-0.315 0.502,-0.15 0.322,0C0.107,-0.164 -0.1,-0.344 -0.301,-0.53C-1.746,-1.918 -2.562,-3.786 -2.604,-5.79C-2.641,-7.795 -1.903,-9.698 -0.515,-11.145C-0.35,-11.309 -0.178,-11.474 0,-11.624" style="fill:white;fill-rule:nonzero;"/>
                        </g>
                        <g transform="matrix(1,0,0,1,621.412,917.869)">
                            <path d="M0,-5.904C1.252,-5.904 2.455,-5.596 3.564,-4.995C3.808,-4.867 4.037,-4.717 4.265,-4.558C4.173,-4.344 4.072,-4.137 3.958,-3.929C2.647,-1.504 0.114,0 -2.648,0C-3.901,0 -5.104,-0.307 -6.213,-0.909C-6.456,-1.038 -6.686,-1.18 -6.914,-1.339C-6.821,-1.56 -6.721,-1.767 -6.606,-1.975C-5.297,-4.394 -2.763,-5.904 0,-5.904" style="fill:white;fill-rule:nonzero;"/>
                        </g>
                        <g transform="matrix(1,0,0,1,624.554,907.834)">
                            <path d="M0,-9.92C0.114,-10.127 0.236,-10.327 0.365,-10.521C0.623,-10.421 0.866,-10.306 1.109,-10.17C2.87,-9.218 4.158,-7.629 4.725,-5.711C5.297,-3.785 5.082,-1.761 4.13,0C4.016,0.208 3.895,0.408 3.766,0.601C3.507,0.501 3.264,0.388 3.021,0.252C-0.615,-1.718 -1.968,-6.284 0,-9.92" style="fill:white;fill-rule:nonzero;"/>
                        </g>
                        <g transform="matrix(1,0,0,1,643.27,832.632)">
                            <path d="M0,38.586L-3.364,38.586L-3.364,15.847L-16.77,15.847L-16.77,12.482L-3.364,12.482L-3.364,0L0,0L0,12.482L13.406,12.482L13.406,15.847L0,15.847L0,38.586Z" style="fill:white;fill-rule:nonzero;"/>
                        </g>
                        <g transform="matrix(1,0,0,1,641.467,786.847)">
                            <path d="M0,15.946C-4.223,15.746 -7.602,12.26 -7.602,7.98C-7.602,3.578 -4.021,0 0.379,0C4.788,0 8.367,3.578 8.367,7.98C8.367,8.731 8.238,9.462 8.03,10.171C5.125,11.766 2.427,13.713 0,15.946" style="fill:white;fill-rule:nonzero;"/>
                        </g>
                        <g transform="matrix(1,0,0,1,646.061,927.303)">
                            <path d="M0,-6.929C0.573,-6.929 1.152,-6.857 1.711,-6.729C1.976,-6.671 2.241,-6.592 2.498,-6.499C2.469,-6.263 2.427,-6.034 2.377,-5.805C1.582,-2.391 -1.424,0 -4.924,0C-5.496,0 -6.069,-0.065 -6.635,-0.2C-6.899,-0.258 -7.164,-0.337 -7.422,-0.43C-7.394,-0.659 -7.351,-0.896 -7.301,-1.117C-6.498,-4.538 -3.499,-6.929 0,-6.929" style="fill:white;fill-rule:nonzero;"/>
                        </g>
                        <g transform="matrix(1,0,0,1,643.399,914.727)">
                            <path d="M0,-8.467C0.05,-8.696 0.115,-8.917 0.193,-9.147C0.465,-9.112 0.73,-9.068 1.002,-9.003C2.949,-8.553 4.609,-7.364 5.669,-5.661C6.729,-3.958 7.064,-1.946 6.605,0.008C6.557,0.236 6.492,0.458 6.414,0.68C6.141,0.651 5.876,0.601 5.611,0.544C1.574,-0.393 -0.938,-4.438 0,-8.467" style="fill:white;fill-rule:nonzero;"/>
                        </g>
                        <g transform="matrix(-1,0,0,1,664.879,920.89)">
                            <path d="M0,-4.144C-1.145,-4.144 -2.068,-3.214 -2.068,-2.069C-2.068,-0.931 -1.145,0 0,0C1.146,0 2.068,-0.931 2.068,-2.069C2.068,-3.214 1.146,-4.144 0,-4.144" style="fill:white;fill-rule:nonzero;"/>
                        </g>
                        <g transform="matrix(1,0,0,1,679.937,786.804)">
                            <path d="M0,-7.744L1.261,-5.196L4.065,-4.789L2.033,-2.806L2.513,0L0,-1.324L-2.512,0L-2.032,-2.806L-4.065,-4.789L-1.26,-5.196L0,-7.744Z" style="fill:white;fill-rule:nonzero;"/>
                        </g>
                        <g transform="matrix(1,0,0,1,679.937,802.277)">
                            <path d="M0,-7.736L1.261,-5.188L4.065,-4.781L2.033,-2.798L2.513,0L0,-1.323L-2.512,0L-2.032,-2.798L-4.065,-4.781L-1.26,-5.188L0,-7.736Z" style="fill:white;fill-rule:nonzero;"/>
                        </g>
                        <g transform="matrix(1,0,0,1,678.678,815.211)">
                            <path d="M0,-2.649L1.26,-5.197L2.52,-2.649L5.325,-2.24L3.293,-0.258L3.772,2.548L1.26,1.223L-1.252,2.548L-0.772,-0.258L-2.805,-2.24L0,-2.649Z" style="fill:white;fill-rule:nonzero;"/>
                        </g>
                        <g transform="matrix(1,0,0,1,685.355,915.262)">
                            <path d="M0,-9.538C0.272,-9.603 0.537,-9.646 0.809,-9.683C0.888,-9.453 0.952,-9.23 1.003,-9.002C1.939,-4.973 -0.572,-0.929 -4.609,0.009C-4.874,0.066 -5.138,0.117 -5.411,0.145C-5.489,-0.076 -5.554,-0.298 -5.604,-0.527C-6.062,-2.481 -5.726,-4.493 -4.666,-6.196C-3.607,-7.899 -1.947,-9.088 0,-9.538" style="fill:white;fill-rule:nonzero;"/>
                        </g>
                        <g transform="matrix(1,0,0,1,683.695,927.303)">
                            <path d="M0,-6.929C3.5,-6.929 6.499,-4.538 7.301,-1.117C7.351,-0.896 7.394,-0.659 7.422,-0.43C7.164,-0.337 6.9,-0.258 6.635,-0.2C6.069,-0.065 5.497,0 4.924,0C1.425,0 -1.582,-2.391 -2.377,-5.805C-2.426,-6.034 -2.47,-6.263 -2.497,-6.499C-2.24,-6.592 -1.976,-6.671 -1.711,-6.729C-1.152,-6.857 -0.572,-6.929 0,-6.929" style="fill:white;fill-rule:nonzero;"/>
                        </g>
                        <g transform="matrix(1,0,0,1,696.214,786.804)">
                            <path d="M0,-7.744L1.252,-5.196L4.065,-4.789L2.032,-2.806L2.513,0L0,-1.324L-2.52,0L-2.032,-2.806L-4.072,-4.789L-1.26,-5.196L0,-7.744Z" style="fill:white;fill-rule:nonzero;"/>
                        </g>
                        <g transform="matrix(1,0,0,1,696.214,802.277)">
                            <path d="M0,-7.736L1.252,-5.188L4.065,-4.781L2.032,-2.798L2.513,0L0,-1.323L-2.52,0L-2.032,-2.798L-4.072,-4.781L-1.26,-5.188L0,-7.736Z" style="fill:white;fill-rule:nonzero;"/>
                        </g>
                        <g transform="matrix(1,0,0,1,694.954,815.211)">
                            <path d="M0,-2.649L1.26,-5.197L2.512,-2.649L5.325,-2.24L3.292,-0.258L3.772,2.548L1.26,1.223L-1.261,2.548L-0.773,-0.258L-2.813,-2.24L0,-2.649Z" style="fill:white;fill-rule:nonzero;"/>
                        </g>
                        <g transform="matrix(1,0,0,1,704.094,908.084)">
                            <path d="M0,-10.42C0.243,-10.556 0.486,-10.671 0.745,-10.771C0.873,-10.577 0.995,-10.377 1.109,-10.169C3.077,-6.534 1.726,-1.967 -1.911,0.001C-2.154,0.137 -2.397,0.251 -2.655,0.351C-2.784,0.158 -2.905,-0.042 -3.021,-0.249C-3.973,-2.011 -4.187,-4.035 -3.614,-5.961C-3.049,-7.879 -1.76,-9.468 0,-10.42" style="fill:white;fill-rule:nonzero;"/>
                        </g>
                        <g transform="matrix(1,0,0,1,708.346,917.869)">
                            <path d="M0,-5.904C2.763,-5.904 5.296,-4.394 6.605,-1.975C6.72,-1.767 6.82,-1.56 6.913,-1.339C6.685,-1.18 6.456,-1.038 6.212,-0.909C5.103,-0.307 3.9,0 2.648,0C-0.115,0 -2.649,-1.504 -3.958,-3.929C-4.073,-4.137 -4.174,-4.344 -4.267,-4.558C-4.037,-4.717 -3.808,-4.867 -3.564,-4.995C-2.456,-5.596 -1.253,-5.904 0,-5.904" style="fill:white;fill-rule:nonzero;"/>
                        </g>
                        <g transform="matrix(1,0,0,1,720.642,896.011)">
                            <path d="M0,-11.624C0.179,-11.474 0.351,-11.309 0.516,-11.145C1.903,-9.698 2.641,-7.795 2.604,-5.79C2.563,-3.786 1.747,-1.918 0.301,-0.53C0.101,-0.344 -0.107,-0.164 -0.322,0C-0.501,-0.15 -0.673,-0.315 -0.837,-0.48C-2.226,-1.926 -2.963,-3.822 -2.928,-5.834C-2.885,-7.838 -2.068,-9.705 -0.623,-11.094C-0.422,-11.28 -0.214,-11.459 0,-11.624" style="fill:white;fill-rule:nonzero;"/>
                        </g>
                        <g transform="matrix(1,0,0,1,729.91,902.845)">
                            <path d="M0,-5.532C2.068,-5.532 3.987,-4.717 5.419,-3.227C5.575,-3.055 5.733,-2.884 5.876,-2.698C5.705,-2.483 5.519,-2.282 5.318,-2.096C3.915,-0.744 2.068,0 0.122,0C-1.939,0 -3.865,-0.823 -5.289,-2.311C-5.454,-2.475 -5.611,-2.655 -5.755,-2.842C-5.575,-3.049 -5.39,-3.249 -5.195,-3.442C-3.794,-4.788 -1.947,-5.532 0,-5.532" style="fill:white;fill-rule:nonzero;"/>
                        </g>
                        <g transform="matrix(1,0,0,1,735.228,867.732)">
                            <path d="M0,11.294C-0.215,11.193 -0.422,11.087 -0.623,10.965C-4.18,8.846 -5.347,4.23 -3.235,0.68C-3.092,0.442 -2.942,0.214 -2.777,0C-2.563,0.1 -2.355,0.207 -2.154,0.329C1.403,2.44 2.576,7.057 0.458,10.614C0.314,10.85 0.164,11.072 0,11.294" style="fill:white;fill-rule:nonzero;"/>
                        </g>
                        <g transform="matrix(1,0,0,1,739.423,858.692)">
                            <path d="M0,-10.156C0.235,-10.114 0.465,-10.063 0.687,-10.006C4.681,-8.904 7.028,-4.767 5.933,-0.773C5.861,-0.515 5.775,-0.258 5.668,0C5.439,-0.036 5.211,-0.093 4.981,-0.15C0.994,-1.253 -1.36,-5.389 -0.259,-9.377C-0.186,-9.64 -0.101,-9.899 0,-10.156" style="fill:white;fill-rule:nonzero;"/>
                        </g>
                        <g transform="matrix(1,0,0,1,746.823,883.307)">
                            <path d="M0,-5.841C1.346,-5.841 2.67,-5.476 3.829,-4.789C4.029,-4.667 4.223,-4.538 4.416,-4.396C4.302,-4.145 4.173,-3.902 4.036,-3.673C2.67,-1.374 0.251,0 -2.426,0C-3.765,0 -5.089,-0.365 -6.249,-1.06C-6.456,-1.182 -6.648,-1.311 -6.835,-1.446C-6.728,-1.696 -6.6,-1.941 -6.456,-2.176C-5.089,-4.474 -2.677,-5.841 0,-5.841" style="fill:white;fill-rule:nonzero;"/>
                        </g>
                        <g transform="matrix(1,0,0,1,749.257,829.004)">
                            <path d="M0,6.655C0,6.927 -0.015,7.199 -0.042,7.471C-0.279,7.493 -0.508,7.508 -0.744,7.508C-4.882,7.508 -8.253,4.136 -8.253,-0.001C-8.253,-0.273 -8.23,-0.544 -8.202,-0.818C-7.967,-0.838 -7.737,-0.853 -7.501,-0.853C-3.363,-0.853 0,2.511 0,6.655" style="fill:white;fill-rule:nonzero;"/>
                        </g>
                        <g transform="matrix(1,0,0,1,758.118,801.77)">
                            <path d="M0,13.277C0.078,12.99 0.128,12.697 0.128,12.396C0.128,11.996 0.078,11.609 -0.008,11.229C-0.502,11.087 -1.01,10.979 -1.546,10.979C-2.628,10.979 -3.63,11.308 -4.474,11.852C-4.688,10.865 -5.161,9.934 -5.927,9.169C-6.206,8.889 -6.521,8.667 -6.851,8.467C-7.173,8.667 -7.487,8.889 -7.767,9.169C-8.532,9.934 -9.011,10.865 -9.22,11.852C-10.07,11.308 -11.066,10.979 -12.146,10.979C-12.684,10.979 -13.198,11.087 -13.686,11.229C-13.771,11.609 -13.821,11.996 -13.821,12.396C-13.821,12.697 -13.771,12.99 -13.692,13.277C-15.159,12.712 -16.205,11.295 -16.205,9.633C-16.205,7.816 -14.967,6.255 -13.206,5.826L-11.102,5.318L-10.693,3.185C-10.35,1.339 -8.726,0 -6.851,0C-4.968,0 -3.351,1.339 -2.999,3.185L-2.592,5.318L-0.487,5.826C1.273,6.255 2.505,7.816 2.505,9.633C2.505,11.295 1.459,12.712 0,13.277" style="fill:white;fill-rule:nonzero;"/>
                        </g>
                        <g transform="matrix(1,0,0,1,750.437,854.341)">
                            <path d="M0,5.818C0.036,5.553 0.094,5.282 0.172,5.016C1.06,1.774 4.037,-0.494 7.401,-0.494C8.066,-0.494 8.739,-0.409 9.398,-0.23C9.62,-0.165 9.842,-0.093 10.063,-0.008C10.021,0.264 9.964,0.529 9.892,0.794C8.997,4.043 6.027,6.312 2.663,6.312C1.99,6.312 1.317,6.219 0.666,6.04C0.437,5.976 0.215,5.904 0,5.818" style="fill:white;fill-rule:nonzero;"/>
                        </g>
                        <g transform="matrix(1,0,0,1,754.754,828.188)">
                            <path d="M0,8.288C-0.029,8.016 -0.05,7.744 -0.05,7.473C-0.05,3.335 3.321,-0.036 7.457,-0.036C7.694,-0.036 7.923,-0.022 8.159,-0.001C8.188,0.272 8.209,0.544 8.209,0.816C8.209,4.96 4.838,8.324 0.701,8.324C0.465,8.324 0.235,8.309 0,8.288" style="fill:white;fill-rule:nonzero;"/>
                        </g>
                    </g>
                    <g transform="matrix(0.886283,0,0,0.886283,4.87508,4.79561)">
                        <text x="32.777px" y="11.99px" style="font-family:'Nazare-Regular', 'Nazare';font-weight:300;font-size:12px;fill:rgb(0,40,48);">Eleições 2023</text>
                        <text x="32.777px" y="23.99px" style="font-family:'Nazare-Regular', 'Nazare';font-weight:300;font-size:12px;fill:rgb(0,40,48);">Conselho T<tspan x="96.005px " y="23.99px ">u</tspan>telar</text>
                    </g>
                </g>
            </g>
        </g>
    </g>
</svg>
